*
%FSLAX33Y33*%
%MOMM*%
%AD*%
%ADD10C, 0.234*%
G54D10*
G01X001727Y007722D02*
G01X001727Y008534D01*
G01X001930Y008738D01*
G01X002134Y008738D01*
G01X002337Y008534D01*
G01X002743Y008941D01*
G01X003150Y008941D01*
G01X003353Y008738D01*
G01X003353Y007722D01*
G01X003353Y007925D01*
G01X001727Y007925D01*
G01X002337Y007925D01*
G01X002337Y008534D01*
G54D10*
G01X002438Y009449D02*
G01X002134Y009754D01*
G01X002134Y010363D01*
G01X002438Y010668D01*
G01X003048Y010668D01*
G01X003353Y010363D01*
G01X003353Y009754D01*
G01X003048Y009449D01*
G01X002438Y009449D01*
G54D10*
G01X001727Y011379D02*
G01X003150Y011379D01*
G01X003353Y011582D01*
G01X003353Y012192D01*
G01X003150Y012395D01*
G54D10*
G01X002134Y011582D02*
G01X002134Y011176D01*
G01X002134Y011582D01*
G54D10*
G01X003353Y012903D02*
G01X001727Y012903D01*
G54D10*
G01X001930Y012903D02*
G01X002540Y013513D01*
G01X001930Y014122D01*
G01X001727Y014122D01*
G01X003353Y014122D01*
G54D10*
G01X002134Y014834D02*
G01X002134Y015240D01*
G01X003353Y015240D01*
G54D10*
G01X003353Y014630D02*
G01X003353Y015850D01*
G54D10*
G01X001829Y015138D02*
G01X001727Y015138D01*
G54D10*
G01X001727Y016561D02*
G01X001727Y016967D01*
G01X003353Y016967D01*
G54D10*
G01X003353Y016358D02*
G01X003353Y017577D01*
G54D10*
G01X001727Y018288D02*
G01X001727Y018694D01*
G01X003353Y018694D01*
G54D10*
G01X003353Y018085D02*
G01X003353Y019304D01*
M00*M02*
