*
%FSLAX33Y33*%
%MOMM*%
%AD*%
%ADD10C, 0.234*%
%ADD11C, 1.037*%
%ADD12C, 1.377*%
%ADD13C, 2.877*%
%ADD14C, 2.921*%
%ADD15C, 4.047*%
G36*
X031812Y020039D02*
X033209Y020039D01*
X033209Y023214D01*
X031812Y023214D01*
X031812Y020039D01*
G37*
G36*
X034352Y023087D02*
X035749Y023087D01*
X035749Y026262D01*
X034352Y026262D01*
X034352Y023087D01*
G37*
G36*
X036892Y020039D02*
X038289Y020039D01*
X038289Y023214D01*
X036892Y023214D01*
X036892Y020039D01*
G37*
G36*
X039432Y023087D02*
X040829Y023087D01*
X040829Y026262D01*
X039432Y026262D01*
X039432Y023087D01*
G37*
G36*
X041972Y020039D02*
X043369Y020039D01*
X043369Y023214D01*
X041972Y023214D01*
X041972Y020039D01*
G37*
G54D10*
G01X001727Y007722D02*
G01X001727Y008534D01*
G01X001930Y008738D01*
G01X002134Y008738D01*
G01X002337Y008534D01*
G01X002743Y008941D01*
G01X003150Y008941D01*
G01X003353Y008738D01*
G01X003353Y007722D01*
G01X003353Y007925D01*
G01X001727Y007925D01*
G01X002337Y007925D01*
G01X002337Y008534D01*
G54D10*
G01X002438Y009449D02*
G01X002134Y009754D01*
G01X002134Y010363D01*
G01X002438Y010668D01*
G01X003048Y010668D01*
G01X003353Y010363D01*
G01X003353Y009754D01*
G01X003048Y009449D01*
G01X002438Y009449D01*
G54D10*
G01X001727Y011379D02*
G01X003150Y011379D01*
G01X003353Y011582D01*
G01X003353Y012192D01*
G01X003150Y012395D01*
G54D10*
G01X002134Y011582D02*
G01X002134Y011176D01*
G01X002134Y011582D01*
G54D10*
G01X003251Y012903D02*
G01X003353Y013005D01*
G01X003353Y013919D01*
G01X003150Y014122D01*
G01X002743Y014122D01*
G01X002540Y013919D01*
G01X002540Y013106D01*
G01X002337Y012903D01*
G01X001930Y012903D01*
G01X001727Y013106D01*
G01X001727Y014021D01*
G01X001829Y014122D01*
G54D10*
G01X003353Y014630D02*
G01X001727Y014630D01*
G54D10*
G01X001930Y014630D02*
G01X002540Y015240D01*
G01X001930Y015850D01*
G01X001727Y015850D01*
G01X003353Y015850D01*
G54D10*
G01X002134Y016561D02*
G01X002134Y017374D01*
G01X002337Y017577D01*
G01X003353Y017577D01*
G01X003150Y017577D01*
G01X003353Y017374D01*
G01X003353Y016561D01*
G01X003150Y016358D01*
G01X002845Y016358D01*
G01X002642Y016561D01*
G01X002642Y017374D01*
G01X002845Y017577D01*
G54D10*
G01X003251Y018085D02*
G01X003353Y018186D01*
G01X003353Y019101D01*
G01X003150Y019304D01*
G01X002946Y019304D01*
G01X002743Y019101D01*
G01X002743Y018288D01*
G01X002540Y018085D01*
G01X002337Y018085D01*
G01X002134Y018288D01*
G01X002134Y019202D01*
G01X002235Y019304D01*
G54D10*
G01X001727Y019812D02*
G01X001930Y019812D01*
G01X003353Y019812D01*
G01X002337Y020828D01*
G01X002743Y020422D01*
G01X003353Y021031D01*
G54D11*
G01X015398Y013145D02*
G55D03*
G54D12*
G01X069960Y009810D02*
G55D03*
G54D12*
G01X069960Y012310D02*
G55D03*
G54D12*
G01X069960Y014310D02*
G55D03*
G54D12*
G01X069960Y016810D02*
G55D03*
G54D12*
G01X068520Y017320D02*
G55D03*
G54D12*
G01X068520Y015320D02*
G55D03*
G54D12*
G01X068520Y013320D02*
G55D03*
G54D12*
G01X068520Y011320D02*
G55D03*
G54D12*
G01X068520Y009320D02*
G55D03*
G54D13*
G01X069960Y006740D02*
G55D03*
G54D13*
G01X069960Y019880D02*
G55D03*
G54D14*
G01X024830Y019540D02*
G55D03*
G54D15*
G01X008870Y025350D02*
G55D03*
G54D15*
G01X078890Y025350D02*
G55D03*
M00*M02*
