M48
METRIC,LZ
T01C000.229
T02C000.750
T03C002.300
T04C003.560
%
M71
T01
X013.437Y017.628
X013.970Y017.628
X014.503Y017.628
X012.878Y017.628
X015.164Y009.119
X013.005Y009.119
X012.548Y009.119
X012.954Y014.503
X015.189Y014.503
X013.487Y014.072
X013.995Y014.072
X012.954Y014.122
X012.878Y017.170
X037.160Y023.444
X037.592Y023.444
X038.024Y023.444
X037.135Y019.812
X037.617Y019.812
X038.100Y019.812
X012.878Y018.136
X013.437Y018.136
X013.970Y018.136
X014.529Y018.110
X012.471Y014.503
X012.471Y014.122
X015.570Y009.119
X036.678Y019.787
X038.557Y019.787
X036.678Y020.295
X038.557Y020.269
X036.678Y019.304
X037.160Y019.304
X037.643Y019.304
X038.125Y019.304
X038.583Y019.304
T02
X069.960Y009.810
X069.960Y012.310
X069.960Y014.310
X069.960Y016.810
X068.520Y017.320
X068.520Y015.320
X068.520Y013.320
X068.520Y011.320
X068.520Y009.320
T03
X069.960Y006.740
X069.960Y019.880
T04
X008.870Y025.350
X078.890Y025.350
M30
