*
%FSLAX33Y33*%
%MOMM*%
%AD*%
%ADD10C, 0.127*%
%ADD11C, 0.229*%
%ADD12C, 0.234*%
%ADD13C, 0.750*%
%ADD14C, 0.800*%
%ADD15C, 2.300*%
%ADD16C, 2.540*%
%ADD17C, 3.560*%
G54D10*
G75*
G01X005080Y006330D02*
G03X008870Y002540I003790J000000D01*
G01*
G54D10*
G75*
G01X082680Y025350D02*
G03X078890Y029140I-03790J000000D01*
G01*
G54D10*
G75*
G01X078890Y002540D02*
G03X082680Y006330I000000J003790D01*
G01*
G54D10*
G75*
G01X008870Y029140D02*
G03X005080Y025350I000000J-03790D01*
G01*
G54D10*
G01X082680Y006330D02*
G01X082680Y025330D01*
G54D10*
G01X008870Y029140D02*
G01X078740Y029140D01*
G54D10*
G01X005080Y006280D02*
G01X005080Y025350D01*
G54D10*
G01X008870Y002540D02*
G01X078740Y002540D01*
G54D11*
G01X013437Y017628D02*
G55D03*
G54D11*
G01X013970Y017628D02*
G55D03*
G54D11*
G01X014503Y017628D02*
G55D03*
G54D11*
G01X012878Y017628D02*
G55D03*
G54D11*
G01X015164Y009119D02*
G55D03*
G54D11*
G01X013005Y009119D02*
G55D03*
G54D11*
G01X012548Y009119D02*
G55D03*
G54D11*
G01X012954Y014503D02*
G55D03*
G54D11*
G01X015189Y014503D02*
G55D03*
G54D11*
G01X013487Y014072D02*
G55D03*
G54D11*
G01X013995Y014072D02*
G55D03*
G54D11*
G01X012954Y014122D02*
G55D03*
G54D11*
G01X012878Y017170D02*
G55D03*
G54D11*
G01X037160Y023444D02*
G55D03*
G54D11*
G01X037592Y023444D02*
G55D03*
G54D11*
G01X038024Y023444D02*
G55D03*
G54D11*
G01X037135Y019812D02*
G55D03*
G54D11*
G01X037617Y019812D02*
G55D03*
G54D11*
G01X038100Y019812D02*
G55D03*
G54D11*
G01X012878Y018136D02*
G55D03*
G54D11*
G01X013437Y018136D02*
G55D03*
G54D11*
G01X013970Y018136D02*
G55D03*
G54D11*
G01X014529Y018110D02*
G55D03*
G54D11*
G01X012471Y014503D02*
G55D03*
G54D11*
G01X012471Y014122D02*
G55D03*
G54D11*
G01X015570Y009119D02*
G55D03*
G54D11*
G01X036678Y019787D02*
G55D03*
G54D11*
G01X038557Y019787D02*
G55D03*
G54D11*
G01X036678Y020295D02*
G55D03*
G54D11*
G01X038557Y020269D02*
G55D03*
G54D11*
G01X036678Y019304D02*
G55D03*
G54D11*
G01X037160Y019304D02*
G55D03*
G54D11*
G01X037643Y019304D02*
G55D03*
G54D11*
G01X038125Y019304D02*
G55D03*
G54D11*
G01X038583Y019304D02*
G55D03*
G54D12*
G01X001727Y007722D02*
G01X001727Y008636D01*
G01X002032Y008941D01*
G01X003048Y008941D01*
G01X003353Y008636D01*
G01X003353Y007722D01*
G54D12*
G01X003353Y007925D02*
G01X001727Y007925D01*
G54D12*
G01X002134Y009449D02*
G01X002134Y009652D01*
G01X003353Y009652D01*
G54D12*
G01X002540Y009652D02*
G01X002134Y010058D01*
G01X002134Y010465D01*
G01X002337Y010668D01*
G54D12*
G01X002134Y011379D02*
G01X002134Y011786D01*
G01X003353Y011786D01*
G54D12*
G01X003353Y011176D02*
G01X003353Y012395D01*
G54D12*
G01X001829Y011684D02*
G01X001727Y011684D01*
G54D12*
G01X001727Y013106D02*
G01X001727Y013513D01*
G01X003353Y013513D01*
G54D12*
G01X003353Y012903D02*
G01X003353Y014122D01*
G54D12*
G01X001727Y014834D02*
G01X001727Y015240D01*
G01X003353Y015240D01*
G54D12*
G01X003353Y014630D02*
G01X003353Y015850D01*
G54D12*
G01X003353Y016358D02*
G01X001727Y016358D01*
G54D12*
G01X001930Y016358D02*
G01X002540Y016967D01*
G01X001930Y017577D01*
G01X001727Y017577D01*
G01X003353Y017577D01*
G54D12*
G01X002134Y018288D02*
G01X002134Y019101D01*
G01X002337Y019304D01*
G01X003353Y019304D01*
G01X003150Y019304D01*
G01X003353Y019101D01*
G01X003353Y018288D01*
G01X003150Y018085D01*
G01X002845Y018085D01*
G01X002642Y018288D01*
G01X002642Y019101D01*
G01X002845Y019304D01*
G54D12*
G01X003759Y019812D02*
G01X002134Y019812D01*
G01X002438Y019812D01*
G01X002134Y020117D01*
G01X002134Y020726D01*
G01X002438Y021031D01*
G01X003048Y021031D01*
G01X003353Y020726D01*
G01X003353Y020117D01*
G01X003048Y019812D01*
G54D13*
G01X069960Y009810D02*
G55D03*
G54D13*
G01X069960Y012310D02*
G55D03*
G54D13*
G01X069960Y014310D02*
G55D03*
G54D13*
G01X069960Y016810D02*
G55D03*
G54D13*
G01X068520Y017320D02*
G55D03*
G54D13*
G01X068520Y015320D02*
G55D03*
G54D13*
G01X068520Y013320D02*
G55D03*
G54D13*
G01X068520Y011320D02*
G55D03*
G54D13*
G01X068520Y009320D02*
G55D03*
G54D14*
G01X015398Y013145D02*
G55D03*
G54D15*
G01X069960Y006740D02*
G55D03*
G54D15*
G01X069960Y019880D02*
G55D03*
G54D16*
G01X024830Y019540D02*
G55D03*
G54D17*
G01X008870Y025350D02*
G55D03*
G54D17*
G01X078890Y025350D02*
G55D03*
M00*M02*
