*
%FSLAX33Y33*%
%MOMM*%
%AD*%
%ADD10C, 0.234*%
%ADD11C, 0.254*%
%ADD12C, 0.381*%
%ADD13C, 0.910*%
%ADD14C, 1.250*%
%ADD15C, 2.032*%
%ADD16C, 2.750*%
%ADD17C, 2.794*%
%ADD18C, 3.920*%
G36*
X013283Y016915D02*
X014933Y016915D01*
X014933Y017315D01*
X013283Y017315D01*
X013283Y016915D01*
G37*
G36*
X013283Y016265D02*
X014933Y016265D01*
X014933Y016665D01*
X013283Y016665D01*
X013283Y016265D01*
G37*
G36*
X013283Y015615D02*
X014933Y015615D01*
X014933Y016015D01*
X013283Y016015D01*
X013283Y015615D01*
G37*
G36*
X013283Y014965D02*
X014933Y014965D01*
X014933Y015365D01*
X013283Y015365D01*
X013283Y014965D01*
G37*
G36*
X013283Y014315D02*
X014933Y014315D01*
X014933Y014715D01*
X013283Y014715D01*
X013283Y014315D01*
G37*
G36*
X013283Y010215D02*
X014933Y010215D01*
X014933Y010615D01*
X013283Y010615D01*
X013283Y010215D01*
G37*
G36*
X013283Y009565D02*
X014933Y009565D01*
X014933Y009965D01*
X013283Y009965D01*
X013283Y009565D01*
G37*
G36*
X013283Y008915D02*
X014933Y008915D01*
X014933Y009315D01*
X013283Y009315D01*
X013283Y008915D01*
G37*
G36*
X013283Y008265D02*
X014933Y008265D01*
X014933Y008665D01*
X013283Y008665D01*
X013283Y008265D01*
G37*
G36*
X013283Y007615D02*
X014933Y007615D01*
X014933Y008015D01*
X013283Y008015D01*
X013283Y007615D01*
G37*
G36*
X013658Y019515D02*
X016758Y019515D01*
X016758Y022215D01*
X013658Y022215D01*
X013658Y019515D01*
G37*
G36*
X013658Y004065D02*
X016758Y004065D01*
X016758Y006765D01*
X013658Y006765D01*
X013658Y004065D01*
G37*
G36*
X015853Y010940D02*
X017853Y010940D01*
X017853Y014340D01*
X015853Y014340D01*
X015853Y010940D01*
G37*
G54D10*
G01X001727Y007722D02*
G01X001930Y007722D01*
G01X003353Y007722D01*
G01X003353Y008941D01*
G54D10*
G01X001727Y009652D02*
G01X001727Y010465D01*
G01X001930Y010668D01*
G01X003150Y010668D01*
G01X003353Y010465D01*
G01X003353Y009652D01*
G01X003150Y009449D01*
G01X001930Y009449D01*
G01X001727Y009652D01*
G54D10*
G01X003353Y011176D02*
G01X003353Y012395D01*
G54D10*
G01X003353Y011786D02*
G01X001727Y011786D01*
G01X002134Y011379D01*
G54D10*
G01X003962Y012903D02*
G01X003962Y013106D01*
G01X003962Y014122D01*
G54D10*
G01X001727Y014630D02*
G01X001727Y015850D01*
G54D10*
G01X001727Y015240D02*
G01X003353Y015240D01*
G01X003150Y015240D01*
G54D10*
G01X001727Y017272D02*
G01X002032Y017577D01*
G01X003048Y017577D01*
G01X003353Y017272D01*
G01X003353Y016662D01*
G01X003048Y016358D01*
G01X002032Y016358D01*
G01X001727Y016662D01*
G01X001727Y017272D01*
G54D10*
G01X003353Y018085D02*
G01X001727Y018085D01*
G01X001727Y019101D01*
G01X001930Y019304D01*
G01X002337Y019304D01*
G01X002540Y019101D01*
G01X002540Y018085D01*
G54D11*
G01X015189Y009195D02*
G01X015621Y009017D01*
G01X012446Y009017D01*
G01X012446Y009195D01*
G01X015621Y009195D01*
G54D11*
G01X012370Y014605D02*
G01X012370Y013995D01*
G01X014084Y013995D01*
G01X014465Y014376D01*
G01X015265Y014376D01*
G01X015265Y014605D01*
G01X012370Y014605D01*
G54D11*
G01X012370Y014199D02*
G01X014288Y014199D01*
G54D11*
G01X012370Y014402D02*
G01X015265Y014402D01*
G54D11*
G01X014808Y017958D02*
G01X014808Y017043D01*
G01X012598Y017043D01*
G01X012598Y018237D01*
G01X014808Y018237D01*
G01X014808Y017958D01*
G54D11*
G01X012598Y017247D02*
G01X014808Y017247D01*
G54D11*
G01X012598Y017450D02*
G01X014808Y017450D01*
G54D11*
G01X012598Y017653D02*
G01X014808Y017653D01*
G54D11*
G01X012598Y017856D02*
G01X014808Y017856D01*
G54D11*
G01X012598Y018059D02*
G01X014808Y018059D01*
G54D11*
G01X014108Y015900D02*
G01X048997Y015900D01*
G01X054889Y021793D01*
G01X071603Y021793D01*
G01X073050Y020345D01*
G01X073050Y014707D01*
G01X072187Y013843D01*
G01X069960Y013843D01*
G54D11*
G01X014108Y016383D02*
G01X048752Y016383D01*
G01X054645Y022276D01*
G01X071806Y022276D01*
G01X073533Y020549D01*
G01X073533Y014529D01*
G01X071780Y012776D01*
G01X069901Y012776D01*
G54D11*
G01X014108Y010415D02*
G01X015417Y010415D01*
G01X015495Y010338D01*
G01X051435Y010338D01*
G01X057683Y016586D01*
G01X067831Y016586D01*
G01X068085Y016840D01*
G01X068504Y016840D01*
G54D11*
G01X014108Y009765D02*
G01X015385Y009765D01*
G01X015476Y009855D01*
G01X051638Y009855D01*
G01X057887Y016104D01*
G01X067805Y016104D01*
G01X068085Y015824D01*
G01X068504Y015824D01*
G54D11*
G01X014108Y008465D02*
G01X015478Y008465D01*
G01X015561Y008382D01*
G01X055804Y008382D01*
G01X057963Y010541D01*
G01X067894Y010541D01*
G01X068199Y010846D01*
G01X068580Y010846D01*
G54D11*
G01X014108Y007815D02*
G01X015426Y007815D01*
G01X015511Y007899D01*
G01X056032Y007899D01*
G01X058191Y010058D01*
G01X067869Y010058D01*
G01X068148Y009779D01*
G01X068520Y009779D01*
G54D12*
G01X013437Y017628D02*
G55D03*
G54D12*
G01X013970Y017628D02*
G55D03*
G54D12*
G01X014503Y017628D02*
G55D03*
G54D12*
G01X012878Y017628D02*
G55D03*
G54D12*
G01X015164Y009119D02*
G55D03*
G54D12*
G01X013005Y009119D02*
G55D03*
G54D12*
G01X012548Y009119D02*
G55D03*
G54D12*
G01X012954Y014503D02*
G55D03*
G54D12*
G01X015189Y014503D02*
G55D03*
G54D12*
G01X013487Y014072D02*
G55D03*
G54D12*
G01X013995Y014072D02*
G55D03*
G54D12*
G01X012954Y014122D02*
G55D03*
G54D12*
G01X012878Y017170D02*
G55D03*
G54D12*
G01X037160Y023444D02*
G55D03*
G54D12*
G01X037592Y023444D02*
G55D03*
G54D12*
G01X038024Y023444D02*
G55D03*
G54D12*
G01X037135Y019812D02*
G55D03*
G54D12*
G01X037617Y019812D02*
G55D03*
G54D12*
G01X038100Y019812D02*
G55D03*
G54D12*
G01X012878Y018136D02*
G55D03*
G54D12*
G01X013437Y018136D02*
G55D03*
G54D12*
G01X013970Y018136D02*
G55D03*
G54D12*
G01X014529Y018110D02*
G55D03*
G54D12*
G01X012471Y014503D02*
G55D03*
G54D12*
G01X012471Y014122D02*
G55D03*
G54D12*
G01X015570Y009119D02*
G55D03*
G54D12*
G01X036678Y019787D02*
G55D03*
G54D12*
G01X038557Y019787D02*
G55D03*
G54D12*
G01X036678Y020295D02*
G55D03*
G54D12*
G01X038557Y020269D02*
G55D03*
G54D12*
G01X036678Y019304D02*
G55D03*
G54D12*
G01X037160Y019304D02*
G55D03*
G54D12*
G01X037643Y019304D02*
G55D03*
G54D12*
G01X038125Y019304D02*
G55D03*
G54D12*
G01X038583Y019304D02*
G55D03*
G54D14*
G01X069960Y009810D02*
G55D03*
G54D14*
G01X069960Y012310D02*
G55D03*
G54D14*
G01X069960Y014310D02*
G55D03*
G54D14*
G01X069960Y016810D02*
G55D03*
G54D14*
G01X068520Y017320D02*
G55D03*
G54D14*
G01X068520Y015320D02*
G55D03*
G54D14*
G01X068520Y013320D02*
G55D03*
G54D14*
G01X068520Y011320D02*
G55D03*
G54D14*
G01X068520Y009320D02*
G55D03*
G54D15*
G01X014732Y005080D02*
G01X068360Y005080D01*
G01X069715Y006054D01*
G54D16*
G01X069960Y006740D02*
G55D03*
G54D16*
G01X069960Y019880D02*
G55D03*
G54D18*
G01X008870Y025350D02*
G55D03*
G54D18*
G01X078890Y025350D02*
G55D03*
M00*M02*
