*
%FSLAX33Y33*%
%MOMM*%
%AD*%
%ADD10C, 0.127*%
%ADD11C, 0.234*%
%ADD12C, 0.381*%
%ADD13C, 0.508*%
%ADD14C, 0.910*%
%ADD15C, 1.250*%
%ADD16C, 2.750*%
%ADD17C, 2.794*%
%ADD18C, 3.920*%
G54D10*
G75*
G01X013348Y017166D02*
G03X013703Y017240I000087J000469D01*
G01*
G54D10*
G75*
G01X013704Y017240D02*
G03X014236Y017240I000266J000390D01*
G01*
G54D10*
G75*
G01X014973Y017628D02*
G03X014919Y017848I-00487J-00003D01*
G01*
G54D10*
G75*
G01X014237Y017240D02*
G03X014973Y017628I000266J000388D01*
G01*
G54D10*
G75*
G01X012482Y017881D02*
G03X012467Y017400I000394J-00253D01*
G01*
G54D10*
G75*
G01X015634Y009119D02*
G03X015634Y009119I-00470J000000D01*
G01*
G54D10*
G75*
G01X013475Y009119D02*
G03X013475Y009119I-00470J000000D01*
G01*
G54D10*
G75*
G01X013017Y009119D02*
G03X013017Y009119I-00470J000000D01*
G01*
G54D10*
G75*
G01X013424Y014503D02*
G03X013424Y014503I-00470J000000D01*
G01*
G54D10*
G75*
G01X015659Y014503D02*
G03X015659Y014503I-00470J000000D01*
G01*
G54D10*
G75*
G01X013957Y014072D02*
G03X013957Y014072I-00470J000000D01*
G01*
G54D10*
G75*
G01X014465Y014072D02*
G03X014465Y014072I-00470J000000D01*
G01*
G54D10*
G75*
G01X013424Y014122D02*
G03X013424Y014122I-00470J000000D01*
G01*
G54D10*
G75*
G01X012467Y017398D02*
G03X013348Y017165I000411J-00228D01*
G01*
G54D10*
G75*
G01X037630Y023444D02*
G03X037630Y023444I-00470J000000D01*
G01*
G54D10*
G75*
G01X038062Y023444D02*
G03X038062Y023444I-00470J000000D01*
G01*
G54D10*
G75*
G01X038494Y023444D02*
G03X038494Y023444I-00470J000000D01*
G01*
G54D10*
G75*
G01X037605Y019812D02*
G03X037605Y019812I-00470J000000D01*
G01*
G54D10*
G75*
G01X038087Y019812D02*
G03X038087Y019812I-00470J000000D01*
G01*
G54D10*
G75*
G01X038570Y019812D02*
G03X038570Y019812I-00470J000000D01*
G01*
G54D10*
G75*
G01X013157Y018514D02*
G03X012482Y017882I-00279J-00379D01*
G01*
G54D10*
G75*
G01X013703Y018523D02*
G03X013157Y018514I-00267J-00392D01*
G01*
G54D10*
G75*
G01X014266Y018501D02*
G03X013704Y018523I-00296J-00367D01*
G01*
G54D10*
G75*
G01X014999Y018110D02*
G03X014267Y018500I-00470J000000D01*
G01*
G54D10*
G75*
G01X014919Y017848D02*
G03X014999Y018110I-00401J000266D01*
G01*
G54D10*
G75*
G01X012941Y014503D02*
G03X012941Y014503I-00470J000000D01*
G01*
G54D10*
G75*
G01X012941Y014122D02*
G03X012941Y014122I-00470J000000D01*
G01*
G54D10*
G75*
G01X016040Y009119D02*
G03X016040Y009119I-00470J000000D01*
G01*
G54D10*
G75*
G01X037147Y019787D02*
G03X037147Y019787I-00470J000000D01*
G01*
G54D10*
G75*
G01X039027Y019787D02*
G03X039027Y019787I-00470J000000D01*
G01*
G54D10*
G75*
G01X037147Y020295D02*
G03X037147Y020295I-00470J000000D01*
G01*
G54D10*
G75*
G01X039027Y020269D02*
G03X039027Y020269I-00470J000000D01*
G01*
G54D10*
G75*
G01X037147Y019304D02*
G03X037147Y019304I-00470J000000D01*
G01*
G54D10*
G75*
G01X037630Y019304D02*
G03X037630Y019304I-00470J000000D01*
G01*
G54D10*
G75*
G01X038113Y019304D02*
G03X038113Y019304I-00470J000000D01*
G01*
G54D10*
G75*
G01X038595Y019304D02*
G03X038595Y019304I-00470J000000D01*
G01*
G54D10*
G75*
G01X039052Y019304D02*
G03X039052Y019304I-00470J000000D01*
G01*
G54D10*
G01X070358Y015921D02*
G01X070358Y015997D01*
G54D10*
G01X070358Y017622D02*
G01X070358Y017805D01*
G54D10*
G75*
G01X070358Y017805D02*
G03X070140Y018235I-00536J-00002D01*
G01*
G54D10*
G75*
G01X069567Y018272D02*
G03X069291Y017805I000254J-00465D01*
G01*
G54D10*
G01X069291Y017805D02*
G01X069291Y017792D01*
G54D10*
G01X069291Y016201D02*
G01X069291Y015921D01*
G54D10*
G75*
G01X069291Y015921D02*
G03X069328Y015726I000575J000008D01*
G01*
G54D10*
G75*
G01X069353Y015671D02*
G03X070358Y015921I000471J000251D01*
G01*
G54D10*
G01X070691Y016277D02*
G01X071044Y016277D01*
G54D10*
G75*
G01X071044Y016277D02*
G03X071044Y017343I000000J000533D01*
G01*
G54D10*
G01X071044Y017343D02*
G01X070691Y017343D01*
G54D10*
G01X069053Y012479D02*
G01X069053Y012589D01*
G54D10*
G01X069053Y014051D02*
G01X069053Y014161D01*
G54D10*
G75*
G01X069053Y014161D02*
G03X068923Y014510I-00527J000002D01*
G01*
G54D10*
G75*
G01X068117Y014510D02*
G03X067987Y014161I000397J-00347D01*
G01*
G54D10*
G01X067987Y014161D02*
G01X067987Y014051D01*
G54D10*
G01X067987Y012589D02*
G01X067987Y012479D01*
G54D10*
G75*
G01X067987Y012479D02*
G03X068117Y012130I000527J-00002D01*
G01*
G54D10*
G75*
G01X068923Y012130D02*
G03X069053Y012479I-00397J000347D01*
G01*
G54D10*
G01X067628Y012802D02*
G01X067779Y012802D01*
G54D10*
G75*
G01X069781Y013197D02*
G03X069792Y013421I-00489J000136D01*
G01*
G54D10*
G01X067801Y013868D02*
G01X067628Y013868D01*
G54D10*
G75*
G01X067628Y013868D02*
G03X067628Y012802I-00001J-00533D01*
G01*
G54D10*
G75*
G01X005549Y006330D02*
G03X008870Y003009I003322J000001D01*
G01*
G54D10*
G75*
G01X082211Y025350D02*
G03X078890Y028671I-03322J-00001D01*
G01*
G54D10*
G75*
G01X078890Y003009D02*
G03X082211Y006330I-00001J003322D01*
G01*
G54D10*
G75*
G01X008870Y028671D02*
G03X005549Y025350I000001J-03322D01*
G01*
G54D10*
G01X082211Y025340D02*
G01X082211Y025330D01*
G54D10*
G01X082211Y025330D02*
G01X082211Y006330D01*
G54D10*
G01X082211Y006330D02*
G01X082211Y006326D01*
G54D10*
G01X008870Y028671D02*
G01X078740Y028671D01*
G54D10*
G75*
G01X078740Y028671D02*
G03X078815Y028677I-00021J000739D01*
G01*
G54D10*
G01X008866Y028671D02*
G01X008870Y028671D01*
G54D10*
G01X005549Y006318D02*
G01X005549Y025350D01*
G54D10*
G01X005549Y025350D02*
G01X005549Y025354D01*
G54D10*
G75*
G01X078815Y003003D02*
G03X078740Y003009I-00096J-00733D01*
G01*
G54D10*
G01X078740Y003009D02*
G01X008870Y003009D01*
G54D10*
G01X008870Y003009D02*
G01X008866Y003009D01*
G54D10*
G75*
G01X016132Y013145D02*
G03X016132Y013145I-00735J000000D01*
G01*
G54D10*
G75*
G01X070864Y009810D02*
G03X069082Y010029I-00904J000000D01*
G01*
G54D10*
G75*
G01X069398Y009101D02*
G03X070864Y009810I000561J000710D01*
G01*
G54D10*
G75*
G01X070864Y012310D02*
G03X069361Y012988I-00905J000000D01*
G01*
G54D10*
G75*
G01X069119Y012642D02*
G03X069108Y012008I000840J-00332D01*
G01*
G54D10*
G75*
G01X069372Y011622D02*
G03X070864Y012310I000587J000688D01*
G01*
G54D10*
G75*
G01X070864Y014310D02*
G03X069361Y014988I-00905J000000D01*
G01*
G54D10*
G75*
G01X069119Y014642D02*
G03X069108Y014008I000840J-00332D01*
G01*
G54D10*
G75*
G01X069372Y013622D02*
G03X070864Y014310I000587J000688D01*
G01*
G54D10*
G75*
G01X070864Y016810D02*
G03X069402Y017522I-00904J000000D01*
G01*
G54D10*
G75*
G01X069079Y016608D02*
G03X070864Y016810I000881J000201D01*
G01*
G54D10*
G75*
G01X069401Y017522D02*
G03X069078Y016608I-00882J-00203D01*
G01*
G54D10*
G75*
G01X069424Y015320D02*
G03X069119Y014642I-00904J-00001D01*
G01*
G54D10*
G75*
G01X069361Y014988D02*
G03X069424Y015320I-00849J000333D01*
G01*
G54D10*
G75*
G01X069424Y013320D02*
G03X069372Y013622I-00899J000001D01*
G01*
G54D10*
G75*
G01X069108Y014008D02*
G03X069119Y012642I-00587J-00688D01*
G01*
G54D10*
G75*
G01X069361Y012988D02*
G03X069424Y013320I-00849J000333D01*
G01*
G54D10*
G75*
G01X069424Y011320D02*
G03X069372Y011622I-00899J000001D01*
G01*
G54D10*
G75*
G01X069108Y012008D02*
G03X069424Y011320I-00588J-00687D01*
G01*
G54D10*
G75*
G01X069082Y010029D02*
G03X069398Y009101I-00562J-00709D01*
G01*
G54D10*
G75*
G01X071614Y006740D02*
G03X071614Y006740I-01654J000000D01*
G01*
G54D10*
G75*
G01X071614Y019880D02*
G03X071614Y019880I-01654J000000D01*
G01*
G54D10*
G75*
G01X011109Y025350D02*
G03X011109Y025350I-02239J000000D01*
G01*
G54D10*
G75*
G01X081129Y025350D02*
G03X081129Y025350I-02239J000000D01*
G01*
G54D10*
G75*
G01X026506Y019540D02*
G03X026506Y019540I-01676J000000D01*
G01*
G54D10*
G01X008080Y003106D02*
G01X079677Y003106D01*
G54D10*
G01X007715Y003221D02*
G01X080058Y003221D01*
G54D10*
G01X007445Y003337D02*
G01X080328Y003337D01*
G54D10*
G01X007223Y003452D02*
G01X080534Y003452D01*
G54D10*
G01X007033Y003568D02*
G01X080724Y003568D01*
G54D10*
G01X006874Y003683D02*
G01X080883Y003683D01*
G54D10*
G01X006731Y003798D02*
G01X081026Y003798D01*
G54D10*
G01X006604Y003914D02*
G01X081153Y003914D01*
G54D10*
G01X006477Y004029D02*
G01X081280Y004029D01*
G54D10*
G01X006382Y004145D02*
G01X081375Y004145D01*
G54D10*
G01X006287Y004260D02*
G01X081486Y004260D01*
G54D10*
G01X006191Y004376D02*
G01X081566Y004376D01*
G54D10*
G01X006112Y004491D02*
G01X081645Y004491D01*
G54D10*
G01X006033Y004607D02*
G01X081725Y004607D01*
G54D10*
G01X005969Y004722D02*
G01X081788Y004722D01*
G54D10*
G01X005906Y004838D02*
G01X081852Y004838D01*
G54D10*
G01X005858Y004953D02*
G01X081899Y004953D01*
G54D10*
G01X005810Y005068D02*
G01X081947Y005068D01*
G54D10*
G01X005763Y005184D02*
G01X069390Y005184D01*
G54D10*
G01X070533Y005184D02*
G01X081994Y005184D01*
G54D10*
G01X005715Y005299D02*
G01X069136Y005299D01*
G54D10*
G01X070787Y005299D02*
G01X082042Y005299D01*
G54D10*
G01X005683Y005415D02*
G01X068961Y005415D01*
G54D10*
G01X070961Y005415D02*
G01X082074Y005415D01*
G54D10*
G01X005652Y005530D02*
G01X068818Y005530D01*
G54D10*
G01X071104Y005530D02*
G01X082106Y005530D01*
G54D10*
G01X005636Y005646D02*
G01X068707Y005646D01*
G54D10*
G01X071215Y005646D02*
G01X082137Y005646D01*
G54D10*
G01X005604Y005761D02*
G01X068612Y005761D01*
G54D10*
G01X071295Y005761D02*
G01X082153Y005761D01*
G54D10*
G01X005588Y005877D02*
G01X068548Y005877D01*
G54D10*
G01X071374Y005877D02*
G01X082169Y005877D01*
G54D10*
G01X005572Y005992D02*
G01X068469Y005992D01*
G54D10*
G01X071438Y005992D02*
G01X082185Y005992D01*
G54D10*
G01X005572Y006108D02*
G01X068421Y006108D01*
G54D10*
G01X071501Y006108D02*
G01X082201Y006108D01*
G54D10*
G01X005556Y006223D02*
G01X068374Y006223D01*
G54D10*
G01X071533Y006223D02*
G01X082201Y006223D01*
G54D10*
G01X005556Y006338D02*
G01X068342Y006338D01*
G54D10*
G01X071580Y006338D02*
G01X082201Y006338D01*
G54D10*
G01X005556Y006454D02*
G01X068326Y006454D01*
G54D10*
G01X071596Y006454D02*
G01X082201Y006454D01*
G54D10*
G01X005556Y006569D02*
G01X068310Y006569D01*
G54D10*
G01X071612Y006569D02*
G01X082201Y006569D01*
G54D10*
G01X005556Y006685D02*
G01X068294Y006685D01*
G54D10*
G01X071628Y006685D02*
G01X082201Y006685D01*
G54D10*
G01X005556Y006800D02*
G01X068294Y006800D01*
G54D10*
G01X071628Y006800D02*
G01X082201Y006800D01*
G54D10*
G01X005556Y006916D02*
G01X068310Y006916D01*
G54D10*
G01X071612Y006916D02*
G01X082201Y006916D01*
G54D10*
G01X005556Y007031D02*
G01X068326Y007031D01*
G54D10*
G01X071596Y007031D02*
G01X082201Y007031D01*
G54D10*
G01X005556Y007147D02*
G01X068342Y007147D01*
G54D10*
G01X071565Y007147D02*
G01X082201Y007147D01*
G54D10*
G01X005556Y007262D02*
G01X068390Y007262D01*
G54D10*
G01X071533Y007262D02*
G01X082201Y007262D01*
G54D10*
G01X005556Y007378D02*
G01X068421Y007378D01*
G54D10*
G01X071501Y007378D02*
G01X082201Y007378D01*
G54D10*
G01X005556Y007493D02*
G01X068485Y007493D01*
G54D10*
G01X071438Y007493D02*
G01X082201Y007493D01*
G54D10*
G01X005556Y007608D02*
G01X068548Y007608D01*
G54D10*
G01X071374Y007608D02*
G01X082201Y007608D01*
G54D10*
G01X005556Y007724D02*
G01X068628Y007724D01*
G54D10*
G01X071295Y007724D02*
G01X082201Y007724D01*
G54D10*
G01X005556Y007839D02*
G01X068723Y007839D01*
G54D10*
G01X071199Y007839D02*
G01X082201Y007839D01*
G54D10*
G01X005556Y007955D02*
G01X068834Y007955D01*
G54D10*
G01X071088Y007955D02*
G01X082201Y007955D01*
G54D10*
G01X005556Y008070D02*
G01X068961Y008070D01*
G54D10*
G01X070945Y008070D02*
G01X082201Y008070D01*
G54D10*
G01X005556Y008186D02*
G01X069152Y008186D01*
G54D10*
G01X070771Y008186D02*
G01X082201Y008186D01*
G54D10*
G01X005556Y008301D02*
G01X069406Y008301D01*
G54D10*
G01X070517Y008301D02*
G01X082201Y008301D01*
G54D10*
G01X005556Y008417D02*
G01X068469Y008417D01*
G54D10*
G01X068564Y008417D02*
G01X082201Y008417D01*
G54D10*
G01X005556Y008532D02*
G01X068072Y008532D01*
G54D10*
G01X068977Y008532D02*
G01X082201Y008532D01*
G54D10*
G01X005556Y008648D02*
G01X067913Y008648D01*
G54D10*
G01X069136Y008648D02*
G01X082201Y008648D01*
G54D10*
G01X005556Y008763D02*
G01X067802Y008763D01*
G54D10*
G01X069247Y008763D02*
G01X082201Y008763D01*
G54D10*
G01X005556Y008878D02*
G01X067723Y008878D01*
G54D10*
G01X069310Y008878D02*
G01X082201Y008878D01*
G54D10*
G01X005556Y008994D02*
G01X067675Y008994D01*
G54D10*
G01X069374Y008994D02*
G01X069564Y008994D01*
G54D10*
G01X070358Y008994D02*
G01X082201Y008994D01*
G54D10*
G01X005556Y009109D02*
G01X067628Y009109D01*
G54D10*
G01X070533Y009109D02*
G01X082201Y009109D01*
G54D10*
G01X005556Y009225D02*
G01X067612Y009225D01*
G54D10*
G01X070660Y009225D02*
G01X082201Y009225D01*
G54D10*
G01X005556Y009340D02*
G01X067612Y009340D01*
G54D10*
G01X070739Y009340D02*
G01X082201Y009340D01*
G54D10*
G01X005556Y009456D02*
G01X067612Y009456D01*
G54D10*
G01X070803Y009456D02*
G01X082201Y009456D01*
G54D10*
G01X005556Y009571D02*
G01X067643Y009571D01*
G54D10*
G01X070834Y009571D02*
G01X082201Y009571D01*
G54D10*
G01X005556Y009687D02*
G01X067691Y009687D01*
G54D10*
G01X070866Y009687D02*
G01X082201Y009687D01*
G54D10*
G01X005556Y009802D02*
G01X067755Y009802D01*
G54D10*
G01X070866Y009802D02*
G01X082201Y009802D01*
G54D10*
G01X005556Y009918D02*
G01X067834Y009918D01*
G54D10*
G01X070866Y009918D02*
G01X082201Y009918D01*
G54D10*
G01X005556Y010033D02*
G01X067961Y010033D01*
G54D10*
G01X070850Y010033D02*
G01X082201Y010033D01*
G54D10*
G01X005556Y010148D02*
G01X068151Y010148D01*
G54D10*
G01X068898Y010148D02*
G01X069120Y010148D01*
G54D10*
G01X070803Y010148D02*
G01X082201Y010148D01*
G54D10*
G01X005556Y010264D02*
G01X069167Y010264D01*
G54D10*
G01X070755Y010264D02*
G01X082201Y010264D01*
G54D10*
G01X005556Y010379D02*
G01X069247Y010379D01*
G54D10*
G01X070676Y010379D02*
G01X082201Y010379D01*
G54D10*
G01X005556Y010495D02*
G01X068136Y010495D01*
G54D10*
G01X068898Y010495D02*
G01X069358Y010495D01*
G54D10*
G01X070564Y010495D02*
G01X082201Y010495D01*
G54D10*
G01X005556Y010610D02*
G01X067945Y010610D01*
G54D10*
G01X069088Y010610D02*
G01X069533Y010610D01*
G54D10*
G01X070390Y010610D02*
G01X082201Y010610D01*
G54D10*
G01X005556Y010726D02*
G01X067834Y010726D01*
G54D10*
G01X069215Y010726D02*
G01X082201Y010726D01*
G54D10*
G01X005556Y010841D02*
G01X067739Y010841D01*
G54D10*
G01X069294Y010841D02*
G01X082201Y010841D01*
G54D10*
G01X005556Y010957D02*
G01X067691Y010957D01*
G54D10*
G01X069358Y010957D02*
G01X082201Y010957D01*
G54D10*
G01X005556Y011072D02*
G01X067643Y011072D01*
G54D10*
G01X069406Y011072D02*
G01X082201Y011072D01*
G54D10*
G01X005556Y011188D02*
G01X067612Y011188D01*
G54D10*
G01X069421Y011188D02*
G01X082201Y011188D01*
G54D10*
G01X005556Y011303D02*
G01X067612Y011303D01*
G54D10*
G01X069437Y011303D02*
G01X082201Y011303D01*
G54D10*
G01X005556Y011418D02*
G01X067612Y011418D01*
G54D10*
G01X069421Y011418D02*
G01X069802Y011418D01*
G54D10*
G01X070120Y011418D02*
G01X082201Y011418D01*
G54D10*
G01X005556Y011534D02*
G01X067628Y011534D01*
G54D10*
G01X069406Y011534D02*
G01X069485Y011534D01*
G54D10*
G01X070437Y011534D02*
G01X082201Y011534D01*
G54D10*
G01X005556Y011649D02*
G01X067675Y011649D01*
G54D10*
G01X070580Y011649D02*
G01X082201Y011649D01*
G54D10*
G01X005556Y011765D02*
G01X067723Y011765D01*
G54D10*
G01X070691Y011765D02*
G01X082201Y011765D01*
G54D10*
G01X005556Y011880D02*
G01X067802Y011880D01*
G54D10*
G01X070771Y011880D02*
G01X082201Y011880D01*
G54D10*
G01X005556Y011996D02*
G01X067913Y011996D01*
G54D10*
G01X070818Y011996D02*
G01X082201Y011996D01*
G54D10*
G01X005556Y012111D02*
G01X068072Y012111D01*
G54D10*
G01X068961Y012111D02*
G01X069072Y012111D01*
G54D10*
G01X070850Y012111D02*
G01X082201Y012111D01*
G54D10*
G01X005556Y012227D02*
G01X069056Y012227D01*
G54D10*
G01X070866Y012227D02*
G01X082201Y012227D01*
G54D10*
G01X005556Y012342D02*
G01X069040Y012342D01*
G54D10*
G01X070866Y012342D02*
G01X082201Y012342D01*
G54D10*
G01X005556Y012458D02*
G01X015129Y012458D01*
G54D10*
G01X015669Y012458D02*
G01X068247Y012458D01*
G54D10*
G01X068802Y012458D02*
G01X069056Y012458D01*
G54D10*
G01X070866Y012458D02*
G01X082201Y012458D01*
G54D10*
G01X005556Y012573D02*
G01X014923Y012573D01*
G54D10*
G01X015859Y012573D02*
G01X068009Y012573D01*
G54D10*
G01X069040Y012573D02*
G01X069088Y012573D01*
G54D10*
G01X070834Y012573D02*
G01X082201Y012573D01*
G54D10*
G01X005556Y012688D02*
G01X014811Y012688D01*
G54D10*
G01X015986Y012688D02*
G01X067866Y012688D01*
G54D10*
G01X070787Y012688D02*
G01X082201Y012688D01*
G54D10*
G01X005556Y012804D02*
G01X014732Y012804D01*
G54D10*
G01X016050Y012804D02*
G01X067770Y012804D01*
G54D10*
G01X070723Y012804D02*
G01X082201Y012804D01*
G54D10*
G01X005556Y012919D02*
G01X014684Y012919D01*
G54D10*
G01X016097Y012919D02*
G01X067707Y012919D01*
G54D10*
G01X070644Y012919D02*
G01X082201Y012919D01*
G54D10*
G01X005556Y013035D02*
G01X014669Y013035D01*
G54D10*
G01X016129Y013035D02*
G01X067659Y013035D01*
G54D10*
G01X069390Y013035D02*
G01X069406Y013035D01*
G54D10*
G01X070517Y013035D02*
G01X082201Y013035D01*
G54D10*
G01X005556Y013150D02*
G01X014653Y013150D01*
G54D10*
G01X016145Y013150D02*
G01X067628Y013150D01*
G54D10*
G01X069421Y013150D02*
G01X069612Y013150D01*
G54D10*
G01X070295Y013150D02*
G01X082201Y013150D01*
G54D10*
G01X005556Y013266D02*
G01X014669Y013266D01*
G54D10*
G01X016129Y013266D02*
G01X067612Y013266D01*
G54D10*
G01X069437Y013266D02*
G01X082201Y013266D01*
G54D10*
G01X005556Y013381D02*
G01X014700Y013381D01*
G54D10*
G01X016097Y013381D02*
G01X067612Y013381D01*
G54D10*
G01X069437Y013381D02*
G01X082201Y013381D01*
G54D10*
G01X005556Y013497D02*
G01X014748Y013497D01*
G54D10*
G01X016050Y013497D02*
G01X067628Y013497D01*
G54D10*
G01X069421Y013497D02*
G01X069564Y013497D01*
G54D10*
G01X070358Y013497D02*
G01X082201Y013497D01*
G54D10*
G01X005556Y013612D02*
G01X014827Y013612D01*
G54D10*
G01X015970Y013612D02*
G01X067659Y013612D01*
G54D10*
G01X070549Y013612D02*
G01X082201Y013612D01*
G54D10*
G01X005556Y013728D02*
G01X014938Y013728D01*
G54D10*
G01X015859Y013728D02*
G01X067707Y013728D01*
G54D10*
G01X070660Y013728D02*
G01X082201Y013728D01*
G54D10*
G01X005556Y013843D02*
G01X015161Y013843D01*
G54D10*
G01X015637Y013843D02*
G01X067770Y013843D01*
G54D10*
G01X070739Y013843D02*
G01X082201Y013843D01*
G54D10*
G01X005556Y013958D02*
G01X067866Y013958D01*
G54D10*
G01X070803Y013958D02*
G01X082201Y013958D01*
G54D10*
G01X005556Y014074D02*
G01X068009Y014074D01*
G54D10*
G01X069025Y014074D02*
G01X069072Y014074D01*
G54D10*
G01X070834Y014074D02*
G01X082201Y014074D01*
G54D10*
G01X005556Y014189D02*
G01X068263Y014189D01*
G54D10*
G01X068771Y014189D02*
G01X069056Y014189D01*
G54D10*
G01X070866Y014189D02*
G01X082201Y014189D01*
G54D10*
G01X005556Y014305D02*
G01X069040Y014305D01*
G54D10*
G01X070866Y014305D02*
G01X082201Y014305D01*
G54D10*
G01X005556Y014420D02*
G01X068421Y014420D01*
G54D10*
G01X068612Y014420D02*
G01X069056Y014420D01*
G54D10*
G01X070866Y014420D02*
G01X082201Y014420D01*
G54D10*
G01X005556Y014536D02*
G01X068056Y014536D01*
G54D10*
G01X068977Y014536D02*
G01X069072Y014536D01*
G54D10*
G01X070850Y014536D02*
G01X082201Y014536D01*
G54D10*
G01X005556Y014651D02*
G01X067897Y014651D01*
G54D10*
G01X070803Y014651D02*
G01X082201Y014651D01*
G54D10*
G01X005556Y014767D02*
G01X067802Y014767D01*
G54D10*
G01X070755Y014767D02*
G01X082201Y014767D01*
G54D10*
G01X005556Y014882D02*
G01X067723Y014882D01*
G54D10*
G01X070676Y014882D02*
G01X082201Y014882D01*
G54D10*
G01X005556Y014998D02*
G01X067659Y014998D01*
G54D10*
G01X070549Y014998D02*
G01X082201Y014998D01*
G54D10*
G01X005556Y015113D02*
G01X067628Y015113D01*
G54D10*
G01X069406Y015113D02*
G01X069533Y015113D01*
G54D10*
G01X070390Y015113D02*
G01X082201Y015113D01*
G54D10*
G01X005556Y015228D02*
G01X067612Y015228D01*
G54D10*
G01X069421Y015228D02*
G01X082201Y015228D01*
G54D10*
G01X005556Y015344D02*
G01X067612Y015344D01*
G54D10*
G01X069437Y015344D02*
G01X082201Y015344D01*
G54D10*
G01X005556Y015459D02*
G01X067612Y015459D01*
G54D10*
G01X069421Y015459D02*
G01X082201Y015459D01*
G54D10*
G01X005556Y015575D02*
G01X067643Y015575D01*
G54D10*
G01X069390Y015575D02*
G01X082201Y015575D01*
G54D10*
G01X005556Y015690D02*
G01X067691Y015690D01*
G54D10*
G01X069358Y015690D02*
G01X082201Y015690D01*
G54D10*
G01X005556Y015806D02*
G01X067755Y015806D01*
G54D10*
G01X069294Y015806D02*
G01X082201Y015806D01*
G54D10*
G01X005556Y015921D02*
G01X067834Y015921D01*
G54D10*
G01X069199Y015921D02*
G01X069787Y015921D01*
G54D10*
G01X070136Y015921D02*
G01X082201Y015921D01*
G54D10*
G01X005556Y016037D02*
G01X067961Y016037D01*
G54D10*
G01X069072Y016037D02*
G01X069485Y016037D01*
G54D10*
G01X070437Y016037D02*
G01X082201Y016037D01*
G54D10*
G01X005556Y016152D02*
G01X068151Y016152D01*
G54D10*
G01X068882Y016152D02*
G01X069326Y016152D01*
G54D10*
G01X070596Y016152D02*
G01X082201Y016152D01*
G54D10*
G01X005556Y016268D02*
G01X069231Y016268D01*
G54D10*
G01X070691Y016268D02*
G01X082201Y016268D01*
G54D10*
G01X005556Y016383D02*
G01X069152Y016383D01*
G54D10*
G01X070771Y016383D02*
G01X082201Y016383D01*
G54D10*
G01X005556Y016498D02*
G01X068136Y016498D01*
G54D10*
G01X068913Y016498D02*
G01X069104Y016498D01*
G54D10*
G01X070818Y016498D02*
G01X082201Y016498D01*
G54D10*
G01X005556Y016614D02*
G01X067945Y016614D01*
G54D10*
G01X070850Y016614D02*
G01X082201Y016614D01*
G54D10*
G01X005556Y016729D02*
G01X012700Y016729D01*
G54D10*
G01X013049Y016729D02*
G01X067834Y016729D01*
G54D10*
G01X070866Y016729D02*
G01X082201Y016729D01*
G54D10*
G01X005556Y016845D02*
G01X012525Y016845D01*
G54D10*
G01X013224Y016845D02*
G01X067739Y016845D01*
G54D10*
G01X070866Y016845D02*
G01X082201Y016845D01*
G54D10*
G01X005556Y016960D02*
G01X012446Y016960D01*
G54D10*
G01X013303Y016960D02*
G01X067675Y016960D01*
G54D10*
G01X070866Y016960D02*
G01X082201Y016960D01*
G54D10*
G01X005556Y017076D02*
G01X012414Y017076D01*
G54D10*
G01X013351Y017076D02*
G01X067643Y017076D01*
G54D10*
G01X070834Y017076D02*
G01X082201Y017076D01*
G54D10*
G01X005556Y017191D02*
G01X012398Y017191D01*
G54D10*
G01X013621Y017191D02*
G01X013795Y017191D01*
G54D10*
G01X014145Y017191D02*
G01X014319Y017191D01*
G54D10*
G01X014684Y017191D02*
G01X067612Y017191D01*
G54D10*
G01X070787Y017191D02*
G01X082201Y017191D01*
G54D10*
G01X005556Y017307D02*
G01X012414Y017307D01*
G54D10*
G01X014859Y017307D02*
G01X067612Y017307D01*
G54D10*
G01X070723Y017307D02*
G01X082201Y017307D01*
G54D10*
G01X005556Y017422D02*
G01X012446Y017422D01*
G54D10*
G01X014938Y017422D02*
G01X067612Y017422D01*
G54D10*
G01X070628Y017422D02*
G01X082201Y017422D01*
G54D10*
G01X005556Y017538D02*
G01X012414Y017538D01*
G54D10*
G01X014970Y017538D02*
G01X067628Y017538D01*
G54D10*
G01X069406Y017538D02*
G01X069421Y017538D01*
G54D10*
G01X070501Y017538D02*
G01X082201Y017538D01*
G54D10*
G01X005556Y017653D02*
G01X012398Y017653D01*
G54D10*
G01X014986Y017653D02*
G01X067675Y017653D01*
G54D10*
G01X069374Y017653D02*
G01X069628Y017653D01*
G54D10*
G01X070295Y017653D02*
G01X082201Y017653D01*
G54D10*
G01X005556Y017768D02*
G01X012414Y017768D01*
G54D10*
G01X014954Y017768D02*
G01X067723Y017768D01*
G54D10*
G01X069310Y017768D02*
G01X082201Y017768D01*
G54D10*
G01X005556Y017884D02*
G01X012478Y017884D01*
G54D10*
G01X014954Y017884D02*
G01X024559Y017884D01*
G54D10*
G01X025098Y017884D02*
G01X067802Y017884D01*
G54D10*
G01X069231Y017884D02*
G01X082201Y017884D01*
G54D10*
G01X005556Y017999D02*
G01X012414Y017999D01*
G54D10*
G01X014986Y017999D02*
G01X024162Y017999D01*
G54D10*
G01X025495Y017999D02*
G01X067913Y017999D01*
G54D10*
G01X069120Y017999D02*
G01X082201Y017999D01*
G54D10*
G01X005556Y018115D02*
G01X012398Y018115D01*
G54D10*
G01X015002Y018115D02*
G01X023940Y018115D01*
G54D10*
G01X025718Y018115D02*
G01X068088Y018115D01*
G54D10*
G01X068961Y018115D02*
G01X082201Y018115D01*
G54D10*
G01X005556Y018230D02*
G01X012414Y018230D01*
G54D10*
G01X014986Y018230D02*
G01X023781Y018230D01*
G54D10*
G01X025892Y018230D02*
G01X069834Y018230D01*
G54D10*
G01X070088Y018230D02*
G01X082201Y018230D01*
G54D10*
G01X005556Y018346D02*
G01X012446Y018346D01*
G54D10*
G01X014938Y018346D02*
G01X023638Y018346D01*
G54D10*
G01X026019Y018346D02*
G01X069326Y018346D01*
G54D10*
G01X070580Y018346D02*
G01X082201Y018346D01*
G54D10*
G01X005556Y018461D02*
G01X012525Y018461D01*
G54D10*
G01X014843Y018461D02*
G01X023543Y018461D01*
G54D10*
G01X026114Y018461D02*
G01X069104Y018461D01*
G54D10*
G01X070818Y018461D02*
G01X082201Y018461D01*
G54D10*
G01X005556Y018577D02*
G01X012700Y018577D01*
G54D10*
G01X013049Y018577D02*
G01X013272Y018577D01*
G54D10*
G01X013605Y018577D02*
G01X013795Y018577D01*
G54D10*
G01X014145Y018577D02*
G01X014462Y018577D01*
G54D10*
G01X014589Y018577D02*
G01X023447Y018577D01*
G54D10*
G01X026210Y018577D02*
G01X068929Y018577D01*
G54D10*
G01X070993Y018577D02*
G01X082201Y018577D01*
G54D10*
G01X005556Y018692D02*
G01X023368Y018692D01*
G54D10*
G01X026289Y018692D02*
G01X068802Y018692D01*
G54D10*
G01X071120Y018692D02*
G01X082201Y018692D01*
G54D10*
G01X005556Y018808D02*
G01X023320Y018808D01*
G54D10*
G01X026353Y018808D02*
G01X068691Y018808D01*
G54D10*
G01X071231Y018808D02*
G01X082201Y018808D01*
G54D10*
G01X005556Y018923D02*
G01X023257Y018923D01*
G54D10*
G01X026400Y018923D02*
G01X068596Y018923D01*
G54D10*
G01X071311Y018923D02*
G01X082201Y018923D01*
G54D10*
G01X005556Y019038D02*
G01X023225Y019038D01*
G54D10*
G01X026432Y019038D02*
G01X068532Y019038D01*
G54D10*
G01X071390Y019038D02*
G01X082201Y019038D01*
G54D10*
G01X005556Y019154D02*
G01X023193Y019154D01*
G54D10*
G01X026464Y019154D02*
G01X068469Y019154D01*
G54D10*
G01X071453Y019154D02*
G01X082201Y019154D01*
G54D10*
G01X005556Y019269D02*
G01X023162Y019269D01*
G54D10*
G01X026495Y019269D02*
G01X068421Y019269D01*
G54D10*
G01X071501Y019269D02*
G01X082201Y019269D01*
G54D10*
G01X005556Y019385D02*
G01X023146Y019385D01*
G54D10*
G01X026511Y019385D02*
G01X068374Y019385D01*
G54D10*
G01X071549Y019385D02*
G01X082201Y019385D01*
G54D10*
G01X005556Y019500D02*
G01X023146Y019500D01*
G54D10*
G01X026511Y019500D02*
G01X068342Y019500D01*
G54D10*
G01X071580Y019500D02*
G01X082201Y019500D01*
G54D10*
G01X005556Y019616D02*
G01X023146Y019616D01*
G54D10*
G01X026511Y019616D02*
G01X068326Y019616D01*
G54D10*
G01X071596Y019616D02*
G01X082201Y019616D01*
G54D10*
G01X005556Y019731D02*
G01X023162Y019731D01*
G54D10*
G01X026511Y019731D02*
G01X068310Y019731D01*
G54D10*
G01X071612Y019731D02*
G01X082201Y019731D01*
G54D10*
G01X005556Y019847D02*
G01X023178Y019847D01*
G54D10*
G01X026480Y019847D02*
G01X068294Y019847D01*
G54D10*
G01X071628Y019847D02*
G01X082201Y019847D01*
G54D10*
G01X005556Y019962D02*
G01X023193Y019962D01*
G54D10*
G01X026464Y019962D02*
G01X068294Y019962D01*
G54D10*
G01X071628Y019962D02*
G01X082201Y019962D01*
G54D10*
G01X005556Y020078D02*
G01X023241Y020078D01*
G54D10*
G01X026432Y020078D02*
G01X068310Y020078D01*
G54D10*
G01X071612Y020078D02*
G01X082201Y020078D01*
G54D10*
G01X005556Y020193D02*
G01X023273Y020193D01*
G54D10*
G01X026384Y020193D02*
G01X068326Y020193D01*
G54D10*
G01X071596Y020193D02*
G01X082201Y020193D01*
G54D10*
G01X005556Y020308D02*
G01X023336Y020308D01*
G54D10*
G01X026321Y020308D02*
G01X068358Y020308D01*
G54D10*
G01X071565Y020308D02*
G01X082201Y020308D01*
G54D10*
G01X005556Y020424D02*
G01X023400Y020424D01*
G54D10*
G01X026257Y020424D02*
G01X068390Y020424D01*
G54D10*
G01X071533Y020424D02*
G01X082201Y020424D01*
G54D10*
G01X005556Y020539D02*
G01X023479Y020539D01*
G54D10*
G01X026178Y020539D02*
G01X068437Y020539D01*
G54D10*
G01X071485Y020539D02*
G01X082201Y020539D01*
G54D10*
G01X005556Y020655D02*
G01X023574Y020655D01*
G54D10*
G01X026083Y020655D02*
G01X068485Y020655D01*
G54D10*
G01X071438Y020655D02*
G01X082201Y020655D01*
G54D10*
G01X005556Y020770D02*
G01X023686Y020770D01*
G54D10*
G01X025972Y020770D02*
G01X068564Y020770D01*
G54D10*
G01X071358Y020770D02*
G01X082201Y020770D01*
G54D10*
G01X005556Y020886D02*
G01X023828Y020886D01*
G54D10*
G01X025845Y020886D02*
G01X068644Y020886D01*
G54D10*
G01X071279Y020886D02*
G01X082201Y020886D01*
G54D10*
G01X005556Y021001D02*
G01X024003Y021001D01*
G54D10*
G01X025654Y021001D02*
G01X068739Y021001D01*
G54D10*
G01X071184Y021001D02*
G01X082201Y021001D01*
G54D10*
G01X005556Y021117D02*
G01X024257Y021117D01*
G54D10*
G01X025400Y021117D02*
G01X068850Y021117D01*
G54D10*
G01X071072Y021117D02*
G01X082201Y021117D01*
G54D10*
G01X005556Y021232D02*
G01X068993Y021232D01*
G54D10*
G01X070914Y021232D02*
G01X082201Y021232D01*
G54D10*
G01X005556Y021348D02*
G01X069183Y021348D01*
G54D10*
G01X070739Y021348D02*
G01X082201Y021348D01*
G54D10*
G01X005556Y021463D02*
G01X069469Y021463D01*
G54D10*
G01X070453Y021463D02*
G01X082201Y021463D01*
G54D10*
G01X005556Y021578D02*
G01X082201Y021578D01*
G54D10*
G01X005556Y021694D02*
G01X082201Y021694D01*
G54D10*
G01X005556Y021809D02*
G01X082201Y021809D01*
G54D10*
G01X005556Y021925D02*
G01X082201Y021925D01*
G54D10*
G01X005556Y022040D02*
G01X082201Y022040D01*
G54D10*
G01X005556Y022156D02*
G01X082201Y022156D01*
G54D10*
G01X005556Y022271D02*
G01X082201Y022271D01*
G54D10*
G01X005556Y022387D02*
G01X082201Y022387D01*
G54D10*
G01X005556Y022502D02*
G01X082201Y022502D01*
G54D10*
G01X005556Y022618D02*
G01X082201Y022618D01*
G54D10*
G01X005556Y022733D02*
G01X082201Y022733D01*
G54D10*
G01X005556Y022848D02*
G01X082201Y022848D01*
G54D10*
G01X005556Y022964D02*
G01X082201Y022964D01*
G54D10*
G01X005556Y023079D02*
G01X082201Y023079D01*
G54D10*
G01X005556Y023195D02*
G01X008255Y023195D01*
G54D10*
G01X009493Y023195D02*
G01X078280Y023195D01*
G54D10*
G01X079502Y023195D02*
G01X082201Y023195D01*
G54D10*
G01X005556Y023310D02*
G01X007938Y023310D01*
G54D10*
G01X009795Y023310D02*
G01X077962Y023310D01*
G54D10*
G01X079820Y023310D02*
G01X082201Y023310D01*
G54D10*
G01X005556Y023426D02*
G01X007715Y023426D01*
G54D10*
G01X010017Y023426D02*
G01X077740Y023426D01*
G54D10*
G01X080042Y023426D02*
G01X082201Y023426D01*
G54D10*
G01X005556Y023541D02*
G01X007541Y023541D01*
G54D10*
G01X010192Y023541D02*
G01X077565Y023541D01*
G54D10*
G01X080216Y023541D02*
G01X082201Y023541D01*
G54D10*
G01X005556Y023657D02*
G01X007398Y023657D01*
G54D10*
G01X010351Y023657D02*
G01X077422Y023657D01*
G54D10*
G01X080359Y023657D02*
G01X082201Y023657D01*
G54D10*
G01X005556Y023772D02*
G01X007271Y023772D01*
G54D10*
G01X010462Y023772D02*
G01X077295Y023772D01*
G54D10*
G01X080486Y023772D02*
G01X082201Y023772D01*
G54D10*
G01X005556Y023888D02*
G01X007160Y023888D01*
G54D10*
G01X010573Y023888D02*
G01X077184Y023888D01*
G54D10*
G01X080597Y023888D02*
G01X082201Y023888D01*
G54D10*
G01X005556Y024003D02*
G01X007080Y024003D01*
G54D10*
G01X010668Y024003D02*
G01X077089Y024003D01*
G54D10*
G01X080693Y024003D02*
G01X082201Y024003D01*
G54D10*
G01X005556Y024118D02*
G01X006985Y024118D01*
G54D10*
G01X010747Y024118D02*
G01X077010Y024118D01*
G54D10*
G01X080772Y024118D02*
G01X082201Y024118D01*
G54D10*
G01X005556Y024234D02*
G01X006922Y024234D01*
G54D10*
G01X010827Y024234D02*
G01X076946Y024234D01*
G54D10*
G01X080836Y024234D02*
G01X082201Y024234D01*
G54D10*
G01X005556Y024349D02*
G01X006858Y024349D01*
G54D10*
G01X010874Y024349D02*
G01X076883Y024349D01*
G54D10*
G01X080899Y024349D02*
G01X082201Y024349D01*
G54D10*
G01X005556Y024465D02*
G01X006810Y024465D01*
G54D10*
G01X010938Y024465D02*
G01X076819Y024465D01*
G54D10*
G01X080963Y024465D02*
G01X082201Y024465D01*
G54D10*
G01X005556Y024580D02*
G01X006763Y024580D01*
G54D10*
G01X010986Y024580D02*
G01X076772Y024580D01*
G54D10*
G01X080994Y024580D02*
G01X082201Y024580D01*
G54D10*
G01X005556Y024696D02*
G01X006715Y024696D01*
G54D10*
G01X011017Y024696D02*
G01X076740Y024696D01*
G54D10*
G01X081042Y024696D02*
G01X082201Y024696D01*
G54D10*
G01X005556Y024811D02*
G01X006683Y024811D01*
G54D10*
G01X011049Y024811D02*
G01X076708Y024811D01*
G54D10*
G01X081074Y024811D02*
G01X082201Y024811D01*
G54D10*
G01X005556Y024927D02*
G01X006668Y024927D01*
G54D10*
G01X011081Y024927D02*
G01X076676Y024927D01*
G54D10*
G01X081090Y024927D02*
G01X082201Y024927D01*
G54D10*
G01X005556Y025042D02*
G01X006652Y025042D01*
G54D10*
G01X011097Y025042D02*
G01X076660Y025042D01*
G54D10*
G01X081121Y025042D02*
G01X082201Y025042D01*
G54D10*
G01X005556Y025158D02*
G01X006636Y025158D01*
G54D10*
G01X011113Y025158D02*
G01X076645Y025158D01*
G54D10*
G01X081121Y025158D02*
G01X082201Y025158D01*
G54D10*
G01X005556Y025273D02*
G01X006620Y025273D01*
G54D10*
G01X011113Y025273D02*
G01X076645Y025273D01*
G54D10*
G01X081137Y025273D02*
G01X082201Y025273D01*
G54D10*
G01X005556Y025388D02*
G01X006620Y025388D01*
G54D10*
G01X011113Y025388D02*
G01X076645Y025388D01*
G54D10*
G01X081137Y025388D02*
G01X082201Y025388D01*
G54D10*
G01X005556Y025504D02*
G01X006636Y025504D01*
G54D10*
G01X011113Y025504D02*
G01X076645Y025504D01*
G54D10*
G01X081137Y025504D02*
G01X082201Y025504D01*
G54D10*
G01X005572Y025619D02*
G01X006636Y025619D01*
G54D10*
G01X011097Y025619D02*
G01X076660Y025619D01*
G54D10*
G01X081121Y025619D02*
G01X082185Y025619D01*
G54D10*
G01X005572Y025735D02*
G01X006652Y025735D01*
G54D10*
G01X011081Y025735D02*
G01X076676Y025735D01*
G54D10*
G01X081105Y025735D02*
G01X082185Y025735D01*
G54D10*
G01X005588Y025850D02*
G01X006683Y025850D01*
G54D10*
G01X011065Y025850D02*
G01X076692Y025850D01*
G54D10*
G01X081074Y025850D02*
G01X082169Y025850D01*
G54D10*
G01X005620Y025966D02*
G01X006715Y025966D01*
G54D10*
G01X011033Y025966D02*
G01X076724Y025966D01*
G54D10*
G01X081058Y025966D02*
G01X082153Y025966D01*
G54D10*
G01X005636Y026081D02*
G01X006747Y026081D01*
G54D10*
G01X011001Y026081D02*
G01X076772Y026081D01*
G54D10*
G01X081010Y026081D02*
G01X082121Y026081D01*
G54D10*
G01X005667Y026197D02*
G01X006795Y026197D01*
G54D10*
G01X010954Y026197D02*
G01X076803Y026197D01*
G54D10*
G01X080978Y026197D02*
G01X082090Y026197D01*
G54D10*
G01X005699Y026312D02*
G01X006842Y026312D01*
G54D10*
G01X010906Y026312D02*
G01X076867Y026312D01*
G54D10*
G01X080915Y026312D02*
G01X082058Y026312D01*
G54D10*
G01X005731Y026428D02*
G01X006906Y026428D01*
G54D10*
G01X010843Y026428D02*
G01X076914Y026428D01*
G54D10*
G01X080867Y026428D02*
G01X082026Y026428D01*
G54D10*
G01X005779Y026543D02*
G01X006969Y026543D01*
G54D10*
G01X010779Y026543D02*
G01X076994Y026543D01*
G54D10*
G01X080788Y026543D02*
G01X081979Y026543D01*
G54D10*
G01X005826Y026658D02*
G01X007049Y026658D01*
G54D10*
G01X010700Y026658D02*
G01X077057Y026658D01*
G54D10*
G01X080709Y026658D02*
G01X081931Y026658D01*
G54D10*
G01X005874Y026774D02*
G01X007128Y026774D01*
G54D10*
G01X010605Y026774D02*
G01X077153Y026774D01*
G54D10*
G01X080629Y026774D02*
G01X081883Y026774D01*
G54D10*
G01X005937Y026889D02*
G01X007239Y026889D01*
G54D10*
G01X010509Y026889D02*
G01X077248Y026889D01*
G54D10*
G01X080518Y026889D02*
G01X081820Y026889D01*
G54D10*
G01X006001Y027005D02*
G01X007350Y027005D01*
G54D10*
G01X010382Y027005D02*
G01X077375Y027005D01*
G54D10*
G01X080407Y027005D02*
G01X081756Y027005D01*
G54D10*
G01X006064Y027120D02*
G01X007493Y027120D01*
G54D10*
G01X010255Y027120D02*
G01X077518Y027120D01*
G54D10*
G01X080264Y027120D02*
G01X081693Y027120D01*
G54D10*
G01X006144Y027236D02*
G01X007652Y027236D01*
G54D10*
G01X010081Y027236D02*
G01X077676Y027236D01*
G54D10*
G01X080105Y027236D02*
G01X081613Y027236D01*
G54D10*
G01X006223Y027351D02*
G01X007858Y027351D01*
G54D10*
G01X009890Y027351D02*
G01X077883Y027351D01*
G54D10*
G01X079899Y027351D02*
G01X081534Y027351D01*
G54D10*
G01X006318Y027467D02*
G01X008128Y027467D01*
G54D10*
G01X009604Y027467D02*
G01X078153Y027467D01*
G54D10*
G01X079629Y027467D02*
G01X081439Y027467D01*
G54D10*
G01X006414Y027582D02*
G01X008684Y027582D01*
G54D10*
G01X009065Y027582D02*
G01X078708Y027582D01*
G54D10*
G01X079073Y027582D02*
G01X081344Y027582D01*
G54D10*
G01X006525Y027698D02*
G01X081232Y027698D01*
G54D10*
G01X006652Y027813D02*
G01X081105Y027813D01*
G54D10*
G01X006779Y027928D02*
G01X080978Y027928D01*
G54D10*
G01X006937Y028044D02*
G01X080820Y028044D01*
G54D10*
G01X007112Y028159D02*
G01X080661Y028159D01*
G54D10*
G01X007303Y028275D02*
G01X080455Y028275D01*
G54D10*
G01X007541Y028390D02*
G01X080216Y028390D01*
G54D10*
G01X007842Y028506D02*
G01X079915Y028506D01*
G54D10*
G01X008303Y028621D02*
G01X079454Y028621D01*
G54D10*
G01X069960Y015969D02*
G01X069960Y016810D01*
G54D10*
G01X069960Y016810D02*
G01X070801Y016810D01*
G54D10*
G01X069960Y016810D02*
G01X069960Y017651D01*
G54D10*
G01X067679Y013320D02*
G01X068520Y013320D01*
G54D10*
G01X068520Y012479D02*
G01X068520Y013320D01*
G54D10*
G01X068520Y013320D02*
G01X069361Y013320D01*
G54D10*
G01X068520Y013320D02*
G01X068520Y014161D01*
G54D11*
G01X001727Y007722D02*
G01X001930Y007722D01*
G01X003353Y007722D01*
G01X003353Y008941D01*
G54D11*
G01X001727Y009652D02*
G01X001727Y010465D01*
G01X001930Y010668D01*
G01X003150Y010668D01*
G01X003353Y010465D01*
G01X003353Y009652D01*
G01X003150Y009449D01*
G01X001930Y009449D01*
G01X001727Y009652D01*
G54D11*
G01X001930Y011379D02*
G01X001727Y011582D01*
G01X001727Y011989D01*
G01X001930Y012192D01*
G01X002134Y012192D01*
G01X003150Y011176D01*
G01X003353Y011176D01*
G01X003353Y012395D01*
G54D11*
G01X003962Y012903D02*
G01X003962Y013106D01*
G01X003962Y014122D01*
G54D11*
G01X003353Y014630D02*
G01X001727Y014630D01*
G54D11*
G01X001930Y014630D02*
G01X002540Y015240D01*
G01X001930Y015850D01*
G01X001727Y015850D01*
G01X003353Y015850D01*
G54D11*
G01X001727Y016358D02*
G01X001727Y016561D01*
G01X001727Y017577D01*
G54D11*
G01X001727Y016967D02*
G01X003353Y016967D01*
G54D11*
G01X003353Y016358D02*
G01X003353Y017577D01*
G54D11*
G01X001727Y018085D02*
G01X001727Y018999D01*
G01X002032Y019304D01*
G01X003048Y019304D01*
G01X003353Y018999D01*
G01X003353Y018085D01*
G54D11*
G01X003353Y018288D02*
G01X001727Y018288D01*
G54D12*
G01X013437Y017628D02*
G55D03*
G54D12*
G01X013970Y017628D02*
G55D03*
G54D12*
G01X014503Y017628D02*
G55D03*
G54D12*
G01X012878Y017628D02*
G55D03*
G54D12*
G01X015164Y009119D02*
G55D03*
G54D12*
G01X013005Y009119D02*
G55D03*
G54D12*
G01X012548Y009119D02*
G55D03*
G54D12*
G01X012954Y014503D02*
G55D03*
G54D12*
G01X015189Y014503D02*
G55D03*
G54D12*
G01X013487Y014072D02*
G55D03*
G54D12*
G01X013995Y014072D02*
G55D03*
G54D12*
G01X012954Y014122D02*
G55D03*
G54D12*
G01X012878Y017170D02*
G55D03*
G54D12*
G01X037160Y023444D02*
G55D03*
G54D12*
G01X037592Y023444D02*
G55D03*
G54D12*
G01X038024Y023444D02*
G55D03*
G54D12*
G01X037135Y019812D02*
G55D03*
G54D12*
G01X037617Y019812D02*
G55D03*
G54D12*
G01X038100Y019812D02*
G55D03*
G54D12*
G01X012878Y018136D02*
G55D03*
G54D12*
G01X013437Y018136D02*
G55D03*
G54D12*
G01X013970Y018136D02*
G55D03*
G54D12*
G01X014529Y018110D02*
G55D03*
G54D12*
G01X012471Y014503D02*
G55D03*
G54D12*
G01X012471Y014122D02*
G55D03*
G54D12*
G01X015570Y009119D02*
G55D03*
G54D12*
G01X036678Y019787D02*
G55D03*
G54D12*
G01X038557Y019787D02*
G55D03*
G54D12*
G01X036678Y020295D02*
G55D03*
G54D12*
G01X038557Y020269D02*
G55D03*
G54D12*
G01X036678Y019304D02*
G55D03*
G54D12*
G01X037160Y019304D02*
G55D03*
G54D12*
G01X037643Y019304D02*
G55D03*
G54D12*
G01X038125Y019304D02*
G55D03*
G54D12*
G01X038583Y019304D02*
G55D03*
G54D13*
G01X069825Y015921D02*
G01X069825Y017805D01*
G54D13*
G01X069960Y016810D02*
G01X071044Y016810D01*
G54D13*
G01X068520Y012479D02*
G01X068520Y014161D01*
G54D13*
G01X067628Y013335D02*
G01X069266Y013335D01*
G54D15*
G01X069960Y009810D02*
G55D03*
G54D15*
G01X069960Y012310D02*
G55D03*
G54D15*
G01X069960Y014310D02*
G55D03*
G54D15*
G01X069960Y016810D02*
G55D03*
G54D15*
G01X068520Y017320D02*
G55D03*
G54D15*
G01X068520Y015320D02*
G55D03*
G54D15*
G01X068520Y013320D02*
G55D03*
G54D15*
G01X068520Y011320D02*
G55D03*
G54D15*
G01X068520Y009320D02*
G55D03*
G54D16*
G01X069960Y006740D02*
G55D03*
G54D16*
G01X069960Y019880D02*
G55D03*
G54D18*
G01X008870Y025350D02*
G55D03*
G54D18*
G01X078890Y025350D02*
G55D03*
M00*M02*
