*
%FSLAX33Y33*%
%MOMM*%
%AD*%
%ADD10C, 0.234*%
%ADD11C, 0.381*%
%ADD12C, 0.910*%
%ADD13C, 1.250*%
%ADD14C, 2.750*%
%ADD15C, 2.794*%
%ADD16C, 3.920*%
G54D10*
G01X001727Y007722D02*
G01X001930Y007722D01*
G01X003353Y007722D01*
G01X003353Y008941D01*
G54D10*
G01X001727Y009652D02*
G01X001727Y010465D01*
G01X001930Y010668D01*
G01X003150Y010668D01*
G01X003353Y010465D01*
G01X003353Y009652D01*
G01X003150Y009449D01*
G01X001930Y009449D01*
G01X001727Y009652D01*
G54D10*
G01X001930Y011379D02*
G01X001727Y011582D01*
G01X001727Y011989D01*
G01X001930Y012192D01*
G01X002134Y012192D01*
G01X002337Y011989D01*
G01X002743Y012395D01*
G01X003150Y012395D01*
G01X003353Y012192D01*
G01X003353Y011379D01*
G01X003150Y011176D01*
G54D10*
G01X003962Y012903D02*
G01X003962Y013106D01*
G01X003962Y014122D01*
G54D10*
G01X003353Y014630D02*
G01X001727Y014630D01*
G54D10*
G01X001930Y014630D02*
G01X002540Y015240D01*
G01X001930Y015850D01*
G01X001727Y015850D01*
G01X003353Y015850D01*
G54D10*
G01X001727Y016358D02*
G01X001727Y016561D01*
G01X001727Y017577D01*
G54D10*
G01X001727Y016967D02*
G01X003353Y016967D01*
G54D10*
G01X003353Y016358D02*
G01X003353Y017577D01*
G54D10*
G01X001727Y018085D02*
G01X001727Y018999D01*
G01X002032Y019304D01*
G01X003048Y019304D01*
G01X003353Y018999D01*
G01X003353Y018085D01*
G54D10*
G01X003353Y018288D02*
G01X001727Y018288D01*
G54D11*
G01X013437Y017628D02*
G55D03*
G54D11*
G01X013970Y017628D02*
G55D03*
G54D11*
G01X014503Y017628D02*
G55D03*
G54D11*
G01X012878Y017628D02*
G55D03*
G54D11*
G01X015164Y009119D02*
G55D03*
G54D11*
G01X013005Y009119D02*
G55D03*
G54D11*
G01X012548Y009119D02*
G55D03*
G54D11*
G01X012954Y014503D02*
G55D03*
G54D11*
G01X015189Y014503D02*
G55D03*
G54D11*
G01X013487Y014072D02*
G55D03*
G54D11*
G01X013995Y014072D02*
G55D03*
G54D11*
G01X012954Y014122D02*
G55D03*
G54D11*
G01X012878Y017170D02*
G55D03*
G54D11*
G01X037160Y023444D02*
G55D03*
G54D11*
G01X037592Y023444D02*
G55D03*
G54D11*
G01X038024Y023444D02*
G55D03*
G54D11*
G01X037135Y019812D02*
G55D03*
G54D11*
G01X037617Y019812D02*
G55D03*
G54D11*
G01X038100Y019812D02*
G55D03*
G54D11*
G01X012878Y018136D02*
G55D03*
G54D11*
G01X013437Y018136D02*
G55D03*
G54D11*
G01X013970Y018136D02*
G55D03*
G54D11*
G01X014529Y018110D02*
G55D03*
G54D11*
G01X012471Y014503D02*
G55D03*
G54D11*
G01X012471Y014122D02*
G55D03*
G54D11*
G01X015570Y009119D02*
G55D03*
G54D11*
G01X036678Y019787D02*
G55D03*
G54D11*
G01X038557Y019787D02*
G55D03*
G54D11*
G01X036678Y020295D02*
G55D03*
G54D11*
G01X038557Y020269D02*
G55D03*
G54D11*
G01X036678Y019304D02*
G55D03*
G54D11*
G01X037160Y019304D02*
G55D03*
G54D11*
G01X037643Y019304D02*
G55D03*
G54D11*
G01X038125Y019304D02*
G55D03*
G54D11*
G01X038583Y019304D02*
G55D03*
G54D13*
G01X069960Y009810D02*
G55D03*
G54D13*
G01X069960Y012310D02*
G55D03*
G54D13*
G01X069960Y014310D02*
G55D03*
G54D13*
G01X069960Y016810D02*
G55D03*
G54D13*
G01X068520Y017320D02*
G55D03*
G54D13*
G01X068520Y015320D02*
G55D03*
G54D13*
G01X068520Y013320D02*
G55D03*
G54D13*
G01X068520Y011320D02*
G55D03*
G54D13*
G01X068520Y009320D02*
G55D03*
G54D14*
G01X069960Y006740D02*
G55D03*
G54D14*
G01X069960Y019880D02*
G55D03*
G54D16*
G01X008870Y025350D02*
G55D03*
G54D16*
G01X078890Y025350D02*
G55D03*
M00*M02*
