*
%FSLAX33Y33*%
%MOMM*%
%AD*%
%ADD10C, 0.127*%
%ADD11C, 0.234*%
G54D10*
G75*
G01X005080Y006330D02*
G03X008870Y002540I003790J000000D01*
G01*
G54D10*
G75*
G01X082680Y025350D02*
G03X078890Y029140I-03790J000000D01*
G01*
G54D10*
G75*
G01X078890Y002540D02*
G03X082680Y006330I000000J003790D01*
G01*
G54D10*
G75*
G01X008870Y029140D02*
G03X005080Y025350I000000J-03790D01*
G01*
G54D10*
G01X082680Y006330D02*
G01X082680Y025330D01*
G54D10*
G01X008870Y029140D02*
G01X078740Y029140D01*
G54D10*
G01X005080Y006280D02*
G01X005080Y025350D01*
G54D10*
G01X008870Y002540D02*
G01X078740Y002540D01*
G54D11*
G01X003353Y007722D02*
G01X001727Y007722D01*
G54D11*
G01X001930Y007722D02*
G01X002540Y008331D01*
G01X001930Y008941D01*
G01X001727Y008941D01*
G01X003353Y008941D01*
G54D11*
G01X002642Y009449D02*
G01X002642Y010668D01*
G01X002337Y010668D01*
G01X002134Y010465D01*
G01X002134Y009652D01*
G01X002337Y009449D01*
G01X003150Y009449D01*
G01X003353Y009652D01*
G01X003353Y010465D01*
G01X003150Y010668D01*
G54D11*
G01X003048Y012395D02*
G01X003353Y012090D01*
G01X003353Y011481D01*
G01X003048Y011176D01*
G01X002438Y011176D01*
G01X002134Y011481D01*
G01X002134Y012090D01*
G01X002438Y012395D01*
G54D11*
G01X001727Y012903D02*
G01X003353Y012903D01*
G54D11*
G01X002438Y012903D02*
G01X002134Y013208D01*
G01X002134Y013818D01*
G01X002438Y014122D01*
G01X003353Y014122D01*
G54D11*
G01X002134Y014834D02*
G01X002134Y015646D01*
G01X002337Y015850D01*
G01X003353Y015850D01*
G01X003150Y015850D01*
G01X003353Y015646D01*
G01X003353Y014834D01*
G01X003150Y014630D01*
G01X002845Y014630D01*
G01X002642Y014834D01*
G01X002642Y015646D01*
G01X002845Y015850D01*
G54D11*
G01X003353Y016358D02*
G01X002134Y016358D01*
G01X002540Y016358D01*
G01X002134Y016764D01*
G01X002134Y017374D01*
G01X002337Y017577D01*
G01X003353Y017577D01*
G54D11*
G01X002134Y018288D02*
G01X002134Y018694D01*
G01X003353Y018694D01*
G54D11*
G01X003353Y018085D02*
G01X003353Y019304D01*
G54D11*
G01X001829Y018593D02*
G01X001727Y018593D01*
G54D11*
G01X003048Y021031D02*
G01X003353Y020726D01*
G01X003353Y020117D01*
G01X003048Y019812D01*
G01X002438Y019812D01*
G01X002134Y020117D01*
G01X002134Y020726D01*
G01X002438Y021031D01*
M00*M02*
