*
%FSLAX33Y33*%
%MOMM*%
%AD*%
%ADD10C, 0.050*%
%ADD11C, 0.076*%
%ADD12C, 0.100*%
%ADD13C, 0.127*%
%ADD14C, 0.203*%
%ADD15C, 0.219*%
%ADD16C, 0.234*%
%ADD17C, 0.365*%
G54D10*
G75*
G01X007070Y026150D02*
G03X007070Y026150I001800J-00800D01*
G01*
G54D10*
G75*
G01X077090Y026150D02*
G03X077090Y026150I001800J-00800D01*
G01*
G54D11*
G75*
G01X026430Y019540D02*
G03X026430Y019540I-01600J000000D01*
G01*
G54D12*
G01X012953Y020252D02*
G01X012953Y006028D01*
G54D13*
G75*
G01X005080Y006330D02*
G03X008870Y002540I003790J000000D01*
G01*
G54D13*
G75*
G01X082680Y025350D02*
G03X078890Y029140I-03790J000000D01*
G01*
G54D13*
G75*
G01X078890Y002540D02*
G03X082680Y006330I000000J003790D01*
G01*
G54D13*
G75*
G01X008870Y029140D02*
G03X005080Y025350I000000J-03790D01*
G01*
G54D13*
G01X082680Y006330D02*
G01X082680Y025330D01*
G54D13*
G01X008870Y029140D02*
G01X078740Y029140D01*
G54D13*
G01X005080Y006280D02*
G01X005080Y025350D01*
G54D13*
G01X008870Y002540D02*
G01X078740Y002540D01*
G54D14*
G01X067140Y005210D02*
G01X073740Y005210D01*
G01X073740Y021410D01*
G01X066340Y021410D01*
G01X066340Y005210D01*
G01X067140Y005210D01*
G54D15*
G01X018047Y005004D02*
G01X018047Y003766D01*
G01X018332Y003480D01*
G01X018904Y003480D01*
G01X019190Y003766D01*
G01X019190Y005004D01*
G54D15*
G01X019666Y003575D02*
G01X019761Y003480D01*
G01X020618Y003480D01*
G01X020809Y003670D01*
G01X020809Y004051D01*
G01X020618Y004242D01*
G01X019856Y004242D01*
G01X019666Y004432D01*
G01X019666Y004813D01*
G01X019856Y005004D01*
G01X020714Y005004D01*
G01X020809Y004909D01*
G54D15*
G01X021285Y005004D02*
G01X022047Y005004D01*
G01X022238Y004813D01*
G01X022238Y004623D01*
G01X022047Y004432D01*
G01X022428Y004051D01*
G01X022428Y003670D01*
G01X022238Y003480D01*
G01X021285Y003480D01*
G01X021476Y003480D01*
G01X021476Y005004D01*
G01X021476Y004432D01*
G01X022047Y004432D01*
G54D15*
G01X024714Y004813D02*
G01X024905Y005004D01*
G01X025286Y005004D01*
G01X025476Y004813D01*
G01X025476Y004623D01*
G01X025286Y004432D01*
G01X025667Y004051D01*
G01X025667Y003670D01*
G01X025476Y003480D01*
G01X024714Y003480D01*
G01X024524Y003670D01*
G54D15*
G01X027762Y003575D02*
G01X027857Y003480D01*
G01X028715Y003480D01*
G01X028905Y003670D01*
G01X028905Y004051D01*
G01X028715Y004242D01*
G01X027953Y004242D01*
G01X027762Y004432D01*
G01X027762Y004813D01*
G01X027953Y005004D01*
G01X028810Y005004D01*
G01X028905Y004909D01*
G54D15*
G01X029381Y003575D02*
G01X029477Y003480D01*
G01X030334Y003480D01*
G01X030524Y003670D01*
G01X030524Y004051D01*
G01X030334Y004242D01*
G01X029572Y004242D01*
G01X029381Y004432D01*
G01X029381Y004813D01*
G01X029572Y005004D01*
G01X030429Y005004D01*
G01X030524Y004909D01*
G54D15*
G01X032620Y003480D02*
G01X032620Y004623D01*
G01X032620Y004337D01*
G01X032906Y004623D01*
G01X033096Y004623D01*
G01X033191Y004528D01*
G01X033191Y003480D01*
G54D15*
G01X033191Y004337D02*
G01X033477Y004623D01*
G01X033668Y004623D01*
G01X033763Y004528D01*
G01X033763Y003480D01*
G54D15*
G01X034430Y004623D02*
G01X034811Y004623D01*
G01X034811Y003480D01*
G54D15*
G01X034239Y003480D02*
G01X035382Y003480D01*
G54D15*
G01X034715Y004909D02*
G01X034715Y005004D01*
G54D15*
G01X037001Y003766D02*
G01X036716Y003480D01*
G01X036144Y003480D01*
G01X035858Y003766D01*
G01X035858Y004337D01*
G01X036144Y004623D01*
G01X036716Y004623D01*
G01X037001Y004337D01*
G54D15*
G01X037478Y004623D02*
G01X037668Y004623D01*
G01X037668Y003480D01*
G54D15*
G01X037668Y004242D02*
G01X038049Y004623D01*
G01X038430Y004623D01*
G01X038621Y004432D01*
G54D15*
G01X039097Y004337D02*
G01X039383Y004623D01*
G01X039954Y004623D01*
G01X040240Y004337D01*
G01X040240Y003766D01*
G01X039954Y003480D01*
G01X039383Y003480D01*
G01X039097Y003766D01*
G01X039097Y004337D01*
G54D15*
G01X042335Y005004D02*
G01X043097Y005004D01*
G01X043288Y004813D01*
G01X043288Y004623D01*
G01X043097Y004432D01*
G01X043478Y004051D01*
G01X043478Y003670D01*
G01X043288Y003480D01*
G01X042335Y003480D01*
G01X042526Y003480D01*
G01X042526Y005004D01*
G01X042526Y004432D01*
G01X043097Y004432D01*
G54D15*
G01X045098Y004813D02*
G01X044907Y004623D01*
G01X043955Y003670D01*
G54D15*
G01X045574Y003480D02*
G01X045574Y003670D01*
G01X045574Y004623D01*
G01X045955Y005004D01*
G01X046336Y005004D01*
G01X046717Y004623D01*
G01X046717Y003480D01*
G54D15*
G01X045574Y004242D02*
G01X046717Y004242D01*
G54D15*
G01X049574Y004242D02*
G01X049384Y004242D01*
G01X048812Y004242D01*
G54D15*
G01X048812Y003480D02*
G01X048812Y005004D01*
G01X049955Y005004D01*
G54D15*
G01X050432Y004623D02*
G01X050622Y004623D01*
G01X050622Y003480D01*
G54D15*
G01X050622Y004242D02*
G01X051003Y004623D01*
G01X051384Y004623D01*
G01X051575Y004432D01*
G54D15*
G01X052051Y004337D02*
G01X052337Y004623D01*
G01X052908Y004623D01*
G01X053194Y004337D01*
G01X053194Y003766D01*
G01X052908Y003480D01*
G01X052337Y003480D01*
G01X052051Y003766D01*
G01X052051Y004337D01*
G54D15*
G01X053670Y003480D02*
G01X053670Y004623D01*
G01X053670Y004242D01*
G01X054051Y004623D01*
G01X054623Y004623D01*
G01X054813Y004432D01*
G01X054813Y003480D01*
G54D15*
G01X055480Y005004D02*
G01X055480Y003670D01*
G01X055670Y003480D01*
G01X056242Y003480D01*
G01X056432Y003670D01*
G54D15*
G01X055670Y004623D02*
G01X055289Y004623D01*
G01X055670Y004623D01*
G54D15*
G01X058528Y003480D02*
G01X058528Y005004D01*
G01X059480Y005004D01*
G01X059671Y004813D01*
G01X059671Y004432D01*
G01X059480Y004242D01*
G01X058528Y004242D01*
G54D15*
G01X060338Y004623D02*
G01X061100Y004623D01*
G01X061290Y004432D01*
G01X061290Y003480D01*
G01X061290Y003670D01*
G01X061100Y003480D01*
G01X060338Y003480D01*
G01X060147Y003670D01*
G01X060147Y003956D01*
G01X060338Y004147D01*
G01X061100Y004147D01*
G01X061290Y003956D01*
G54D15*
G01X061766Y003480D02*
G01X061766Y004623D01*
G01X061766Y004242D01*
G01X062147Y004623D01*
G01X062719Y004623D01*
G01X062909Y004432D01*
G01X062909Y003480D01*
G54D15*
G01X063386Y004147D02*
G01X064529Y004147D01*
G01X064529Y004432D01*
G01X064338Y004623D01*
G01X063576Y004623D01*
G01X063386Y004432D01*
G01X063386Y003670D01*
G01X063576Y003480D01*
G01X064338Y003480D01*
G01X064529Y003670D01*
G54D15*
G01X065195Y005004D02*
G01X065576Y005004D01*
G01X065576Y003480D01*
G54D15*
G01X065005Y003480D02*
G01X066148Y003480D01*
G54D16*
G01X001727Y007722D02*
G01X001727Y008941D01*
G54D16*
G01X001727Y008331D02*
G01X003353Y008331D01*
G01X003150Y008331D01*
G54D16*
G01X002438Y009449D02*
G01X002134Y009754D01*
G01X002134Y010363D01*
G01X002438Y010668D01*
G01X003048Y010668D01*
G01X003353Y010363D01*
G01X003353Y009754D01*
G01X003048Y009449D01*
G01X002438Y009449D01*
G54D16*
G01X003759Y011176D02*
G01X002134Y011176D01*
G01X002438Y011176D01*
G01X002134Y011481D01*
G01X002134Y012090D01*
G01X002438Y012395D01*
G01X003048Y012395D01*
G01X003353Y012090D01*
G01X003353Y011481D01*
G01X003048Y011176D01*
G54D16*
G01X003353Y012903D02*
G01X001727Y012903D01*
G01X001727Y013919D01*
G01X001930Y014122D01*
G01X002337Y014122D01*
G01X002540Y013919D01*
G01X002540Y012903D01*
G54D16*
G01X002134Y014630D02*
G01X002134Y014834D01*
G01X003353Y014834D01*
G54D16*
G01X002540Y014834D02*
G01X002134Y015240D01*
G01X002134Y015646D01*
G01X002337Y015850D01*
G54D16*
G01X002134Y016561D02*
G01X002134Y016967D01*
G01X003353Y016967D01*
G54D16*
G01X003353Y016358D02*
G01X003353Y017577D01*
G54D16*
G01X001829Y016866D02*
G01X001727Y016866D01*
G54D16*
G01X003353Y018085D02*
G01X002134Y018085D01*
G01X002540Y018085D01*
G01X002134Y018491D01*
G01X002134Y019101D01*
G01X002337Y019304D01*
G01X003353Y019304D01*
G54D16*
G01X001727Y020015D02*
G01X003150Y020015D01*
G01X003353Y020218D01*
G01X003353Y020828D01*
G01X003150Y021031D01*
G54D16*
G01X002134Y020218D02*
G01X002134Y019812D01*
G01X002134Y020218D01*
G54D17*
G01X014732Y026213D02*
G01X015050Y026213D01*
G01X016637Y026213D01*
G54D17*
G01X015685Y026213D02*
G01X015685Y023673D01*
G54D17*
G01X014732Y023673D02*
G01X016637Y023673D01*
G54D17*
G01X017431Y023673D02*
G01X017431Y026213D01*
G01X017431Y025895D01*
G01X019336Y023990D01*
G01X019336Y023673D01*
G01X019336Y026213D01*
G54D17*
G01X067824Y026492D02*
G01X068301Y026016D01*
G01X068301Y024428D01*
G01X067824Y023952D01*
G01X066872Y023952D01*
G01X066396Y024428D01*
G01X066396Y026016D01*
G01X066872Y026492D01*
G01X067824Y026492D01*
G54D17*
G01X069094Y026492D02*
G01X069094Y024428D01*
G01X069571Y023952D01*
G01X070523Y023952D01*
G01X070999Y024428D01*
G01X070999Y026492D01*
G54D17*
G01X071793Y026492D02*
G01X073698Y026492D01*
G54D17*
G01X072746Y026492D02*
G01X072746Y023952D01*
G01X072746Y024270D01*
M00*M02*
