G04 #@! TF.GenerationSoftware,KiCad,Pcbnew,(5.1.0)-1*
G04 #@! TF.CreationDate,2019-08-13T16:47:38+01:00*
G04 #@! TF.ProjectId,fp_baseline,66705f62-6173-4656-9c69-6e652e6b6963,rev?*
G04 #@! TF.SameCoordinates,Original*
G04 #@! TF.FileFunction,Other,Fab,Top*
%FSLAX46Y46*%
G04 Gerber Fmt 4.6, Leading zero omitted, Abs format (unit mm)*
G04 Created by KiCad (PCBNEW (5.1.0)-1) date 2019-08-13 16:47:38*
%MOMM*%
%LPD*%
G04 APERTURE LIST*
%ADD10C,0.120000*%
%ADD11C,0.150000*%
G04 APERTURE END LIST*
D10*
X166000000Y-88500000D02*
X134000000Y-88500000D01*
X134000000Y-111500000D02*
X166000000Y-111500000D01*
X166000000Y-88500000D02*
G75*
G02X166000000Y-111500000I0J-11500000D01*
G01*
X134000000Y-88500000D02*
G75*
G03X134000000Y-111500000I0J-11500000D01*
G01*
D11*
X137364285Y-99552380D02*
X137364285Y-100266666D01*
X137316666Y-100409523D01*
X137221428Y-100504761D01*
X137078571Y-100552380D01*
X136983333Y-100552380D01*
X137792857Y-100504761D02*
X137935714Y-100552380D01*
X138173809Y-100552380D01*
X138269047Y-100504761D01*
X138316666Y-100457142D01*
X138364285Y-100361904D01*
X138364285Y-100266666D01*
X138316666Y-100171428D01*
X138269047Y-100123809D01*
X138173809Y-100076190D01*
X137983333Y-100028571D01*
X137888095Y-99980952D01*
X137840476Y-99933333D01*
X137792857Y-99838095D01*
X137792857Y-99742857D01*
X137840476Y-99647619D01*
X137888095Y-99600000D01*
X137983333Y-99552380D01*
X138221428Y-99552380D01*
X138364285Y-99600000D01*
X139316666Y-100552380D02*
X138745238Y-100552380D01*
X139030952Y-100552380D02*
X139030952Y-99552380D01*
X138935714Y-99695238D01*
X138840476Y-99790476D01*
X138745238Y-99838095D01*
X140269047Y-100552380D02*
X139697619Y-100552380D01*
X139983333Y-100552380D02*
X139983333Y-99552380D01*
X139888095Y-99695238D01*
X139792857Y-99790476D01*
X139697619Y-99838095D01*
X140888095Y-99552380D02*
X140983333Y-99552380D01*
X141078571Y-99600000D01*
X141126190Y-99647619D01*
X141173809Y-99742857D01*
X141221428Y-99933333D01*
X141221428Y-100171428D01*
X141173809Y-100361904D01*
X141126190Y-100457142D01*
X141078571Y-100504761D01*
X140983333Y-100552380D01*
X140888095Y-100552380D01*
X140792857Y-100504761D01*
X140745238Y-100457142D01*
X140697619Y-100361904D01*
X140650000Y-100171428D01*
X140650000Y-99933333D01*
X140697619Y-99742857D01*
X140745238Y-99647619D01*
X140792857Y-99600000D01*
X140888095Y-99552380D01*
X141411904Y-100647619D02*
X142173809Y-100647619D01*
X142697619Y-99552380D02*
X142697619Y-100266666D01*
X142650000Y-100409523D01*
X142554761Y-100504761D01*
X142411904Y-100552380D01*
X142316666Y-100552380D01*
X143316666Y-100552380D02*
X143221428Y-100504761D01*
X143173809Y-100457142D01*
X143126190Y-100361904D01*
X143126190Y-100076190D01*
X143173809Y-99980952D01*
X143221428Y-99933333D01*
X143316666Y-99885714D01*
X143459523Y-99885714D01*
X143554761Y-99933333D01*
X143602380Y-99980952D01*
X143650000Y-100076190D01*
X143650000Y-100361904D01*
X143602380Y-100457142D01*
X143554761Y-100504761D01*
X143459523Y-100552380D01*
X143316666Y-100552380D01*
X144507142Y-99885714D02*
X144507142Y-100552380D01*
X144078571Y-99885714D02*
X144078571Y-100409523D01*
X144126190Y-100504761D01*
X144221428Y-100552380D01*
X144364285Y-100552380D01*
X144459523Y-100504761D01*
X144507142Y-100457142D01*
X145126190Y-100552380D02*
X145030952Y-100504761D01*
X144983333Y-100409523D01*
X144983333Y-99552380D01*
X145888095Y-100504761D02*
X145792857Y-100552380D01*
X145602380Y-100552380D01*
X145507142Y-100504761D01*
X145459523Y-100409523D01*
X145459523Y-100028571D01*
X145507142Y-99933333D01*
X145602380Y-99885714D01*
X145792857Y-99885714D01*
X145888095Y-99933333D01*
X145935714Y-100028571D01*
X145935714Y-100123809D01*
X145459523Y-100219047D01*
X146316666Y-100504761D02*
X146411904Y-100552380D01*
X146602380Y-100552380D01*
X146697619Y-100504761D01*
X146745238Y-100409523D01*
X146745238Y-100361904D01*
X146697619Y-100266666D01*
X146602380Y-100219047D01*
X146459523Y-100219047D01*
X146364285Y-100171428D01*
X146316666Y-100076190D01*
X146316666Y-100028571D01*
X146364285Y-99933333D01*
X146459523Y-99885714D01*
X146602380Y-99885714D01*
X146697619Y-99933333D01*
X147602380Y-100504761D02*
X147507142Y-100552380D01*
X147316666Y-100552380D01*
X147221428Y-100504761D01*
X147173809Y-100457142D01*
X147126190Y-100361904D01*
X147126190Y-100076190D01*
X147173809Y-99980952D01*
X147221428Y-99933333D01*
X147316666Y-99885714D01*
X147507142Y-99885714D01*
X147602380Y-99933333D01*
X148173809Y-100552380D02*
X148078571Y-100504761D01*
X148030952Y-100457142D01*
X147983333Y-100361904D01*
X147983333Y-100076190D01*
X148030952Y-99980952D01*
X148078571Y-99933333D01*
X148173809Y-99885714D01*
X148316666Y-99885714D01*
X148411904Y-99933333D01*
X148459523Y-99980952D01*
X148507142Y-100076190D01*
X148507142Y-100361904D01*
X148459523Y-100457142D01*
X148411904Y-100504761D01*
X148316666Y-100552380D01*
X148173809Y-100552380D01*
X148935714Y-99885714D02*
X148935714Y-100885714D01*
X148935714Y-99933333D02*
X149030952Y-99885714D01*
X149221428Y-99885714D01*
X149316666Y-99933333D01*
X149364285Y-99980952D01*
X149411904Y-100076190D01*
X149411904Y-100361904D01*
X149364285Y-100457142D01*
X149316666Y-100504761D01*
X149221428Y-100552380D01*
X149030952Y-100552380D01*
X148935714Y-100504761D01*
X150221428Y-100504761D02*
X150126190Y-100552380D01*
X149935714Y-100552380D01*
X149840476Y-100504761D01*
X149792857Y-100409523D01*
X149792857Y-100028571D01*
X149840476Y-99933333D01*
X149935714Y-99885714D01*
X150126190Y-99885714D01*
X150221428Y-99933333D01*
X150269047Y-100028571D01*
X150269047Y-100123809D01*
X149792857Y-100219047D01*
M02*
