G04 #@! TF.GenerationSoftware,KiCad,Pcbnew,(5.1.0)-1*
G04 #@! TF.CreationDate,2019-08-13T16:47:37+01:00*
G04 #@! TF.ProjectId,fp_baseline,66705f62-6173-4656-9c69-6e652e6b6963,rev?*
G04 #@! TF.SameCoordinates,Original*
G04 #@! TF.FileFunction,Copper,L1,Top*
G04 #@! TF.FilePolarity,Positive*
%FSLAX46Y46*%
G04 Gerber Fmt 4.6, Leading zero omitted, Abs format (unit mm)*
G04 Created by KiCad (PCBNEW (5.1.0)-1) date 2019-08-13 16:47:37*
%MOMM*%
%LPD*%
G04 APERTURE LIST*
%ADD10C,3.500000*%
%ADD11C,7.580000*%
%ADD12C,1.000000*%
%ADD13C,0.254000*%
G04 APERTURE END LIST*
D10*
X130950000Y-96300000D03*
D11*
X185010000Y-109510000D03*
X114990000Y-109510000D03*
X185010000Y-90490000D03*
X114990000Y-90490000D03*
D12*
X143650000Y-90740000D03*
D13*
G36*
X166989184Y-88676618D02*
G01*
X167968112Y-88795276D01*
X168917191Y-89012773D01*
X169887072Y-89309676D01*
X170795988Y-89685098D01*
X171676370Y-90150019D01*
X172507242Y-90674259D01*
X173276970Y-91266358D01*
X174357002Y-92306755D01*
X175326934Y-93464736D01*
X175849347Y-94302567D01*
X176353930Y-95291946D01*
X176799400Y-96440268D01*
X177085968Y-97458078D01*
X177234481Y-98319454D01*
X177353105Y-99179478D01*
X177362986Y-99999587D01*
X177353030Y-100527224D01*
X177343201Y-100930212D01*
X177224724Y-101838539D01*
X177026791Y-102768823D01*
X176779513Y-103609568D01*
X176472981Y-104420394D01*
X176067100Y-105281655D01*
X175850544Y-105665549D01*
X175503011Y-106231532D01*
X175286613Y-106556128D01*
X174901281Y-107060024D01*
X174604345Y-107406450D01*
X174118642Y-107951627D01*
X173496088Y-108544535D01*
X172920275Y-109011142D01*
X172615493Y-109256934D01*
X171835513Y-109760465D01*
X171260837Y-110067620D01*
X170746452Y-110334704D01*
X170074965Y-110611199D01*
X169362187Y-110858691D01*
X168719817Y-111036578D01*
X167927900Y-111204861D01*
X167088214Y-111323405D01*
X165997115Y-111373000D01*
X134103182Y-111373000D01*
X133110816Y-111323382D01*
X132131888Y-111204724D01*
X131182809Y-110987227D01*
X130212928Y-110690324D01*
X129304012Y-110314902D01*
X128423630Y-109849981D01*
X127592758Y-109325741D01*
X126823030Y-108733642D01*
X125742998Y-107693245D01*
X124773066Y-106535264D01*
X124250653Y-105697433D01*
X123746070Y-104708054D01*
X123300600Y-103559732D01*
X123014032Y-102541922D01*
X122865519Y-101680546D01*
X122746895Y-100820522D01*
X122737014Y-100000413D01*
X122746970Y-99472776D01*
X122756799Y-99069788D01*
X122875276Y-98161461D01*
X123073209Y-97231177D01*
X123320487Y-96390432D01*
X123443479Y-96065098D01*
X128565000Y-96065098D01*
X128565000Y-96534902D01*
X128656654Y-96995679D01*
X128836440Y-97429721D01*
X129097450Y-97820349D01*
X129429651Y-98152550D01*
X129820279Y-98413560D01*
X130254321Y-98593346D01*
X130715098Y-98685000D01*
X131184902Y-98685000D01*
X131645679Y-98593346D01*
X132079721Y-98413560D01*
X132470349Y-98152550D01*
X132802550Y-97820349D01*
X133063560Y-97429721D01*
X133243346Y-96995679D01*
X133335000Y-96534902D01*
X133335000Y-96065098D01*
X133243346Y-95604321D01*
X133063560Y-95170279D01*
X132802550Y-94779651D01*
X132470349Y-94447450D01*
X132079721Y-94186440D01*
X131645679Y-94006654D01*
X131184902Y-93915000D01*
X130715098Y-93915000D01*
X130254321Y-94006654D01*
X129820279Y-94186440D01*
X129429651Y-94447450D01*
X129097450Y-94779651D01*
X128836440Y-95170279D01*
X128656654Y-95604321D01*
X128565000Y-96065098D01*
X123443479Y-96065098D01*
X123627019Y-95579606D01*
X124032900Y-94718345D01*
X124249456Y-94334451D01*
X124596989Y-93768468D01*
X124813387Y-93443872D01*
X125198719Y-92939976D01*
X125495655Y-92593550D01*
X125981358Y-92048373D01*
X126603912Y-91455465D01*
X127179725Y-90988858D01*
X127484507Y-90743066D01*
X128264487Y-90239535D01*
X128839163Y-89932380D01*
X129353548Y-89665296D01*
X130025035Y-89388801D01*
X130737813Y-89141309D01*
X131380183Y-88963422D01*
X132172100Y-88795139D01*
X133011786Y-88676595D01*
X134102885Y-88627000D01*
X165996818Y-88627000D01*
X166989184Y-88676618D01*
X166989184Y-88676618D01*
G37*
X166989184Y-88676618D02*
X167968112Y-88795276D01*
X168917191Y-89012773D01*
X169887072Y-89309676D01*
X170795988Y-89685098D01*
X171676370Y-90150019D01*
X172507242Y-90674259D01*
X173276970Y-91266358D01*
X174357002Y-92306755D01*
X175326934Y-93464736D01*
X175849347Y-94302567D01*
X176353930Y-95291946D01*
X176799400Y-96440268D01*
X177085968Y-97458078D01*
X177234481Y-98319454D01*
X177353105Y-99179478D01*
X177362986Y-99999587D01*
X177353030Y-100527224D01*
X177343201Y-100930212D01*
X177224724Y-101838539D01*
X177026791Y-102768823D01*
X176779513Y-103609568D01*
X176472981Y-104420394D01*
X176067100Y-105281655D01*
X175850544Y-105665549D01*
X175503011Y-106231532D01*
X175286613Y-106556128D01*
X174901281Y-107060024D01*
X174604345Y-107406450D01*
X174118642Y-107951627D01*
X173496088Y-108544535D01*
X172920275Y-109011142D01*
X172615493Y-109256934D01*
X171835513Y-109760465D01*
X171260837Y-110067620D01*
X170746452Y-110334704D01*
X170074965Y-110611199D01*
X169362187Y-110858691D01*
X168719817Y-111036578D01*
X167927900Y-111204861D01*
X167088214Y-111323405D01*
X165997115Y-111373000D01*
X134103182Y-111373000D01*
X133110816Y-111323382D01*
X132131888Y-111204724D01*
X131182809Y-110987227D01*
X130212928Y-110690324D01*
X129304012Y-110314902D01*
X128423630Y-109849981D01*
X127592758Y-109325741D01*
X126823030Y-108733642D01*
X125742998Y-107693245D01*
X124773066Y-106535264D01*
X124250653Y-105697433D01*
X123746070Y-104708054D01*
X123300600Y-103559732D01*
X123014032Y-102541922D01*
X122865519Y-101680546D01*
X122746895Y-100820522D01*
X122737014Y-100000413D01*
X122746970Y-99472776D01*
X122756799Y-99069788D01*
X122875276Y-98161461D01*
X123073209Y-97231177D01*
X123320487Y-96390432D01*
X123443479Y-96065098D01*
X128565000Y-96065098D01*
X128565000Y-96534902D01*
X128656654Y-96995679D01*
X128836440Y-97429721D01*
X129097450Y-97820349D01*
X129429651Y-98152550D01*
X129820279Y-98413560D01*
X130254321Y-98593346D01*
X130715098Y-98685000D01*
X131184902Y-98685000D01*
X131645679Y-98593346D01*
X132079721Y-98413560D01*
X132470349Y-98152550D01*
X132802550Y-97820349D01*
X133063560Y-97429721D01*
X133243346Y-96995679D01*
X133335000Y-96534902D01*
X133335000Y-96065098D01*
X133243346Y-95604321D01*
X133063560Y-95170279D01*
X132802550Y-94779651D01*
X132470349Y-94447450D01*
X132079721Y-94186440D01*
X131645679Y-94006654D01*
X131184902Y-93915000D01*
X130715098Y-93915000D01*
X130254321Y-94006654D01*
X129820279Y-94186440D01*
X129429651Y-94447450D01*
X129097450Y-94779651D01*
X128836440Y-95170279D01*
X128656654Y-95604321D01*
X128565000Y-96065098D01*
X123443479Y-96065098D01*
X123627019Y-95579606D01*
X124032900Y-94718345D01*
X124249456Y-94334451D01*
X124596989Y-93768468D01*
X124813387Y-93443872D01*
X125198719Y-92939976D01*
X125495655Y-92593550D01*
X125981358Y-92048373D01*
X126603912Y-91455465D01*
X127179725Y-90988858D01*
X127484507Y-90743066D01*
X128264487Y-90239535D01*
X128839163Y-89932380D01*
X129353548Y-89665296D01*
X130025035Y-89388801D01*
X130737813Y-89141309D01*
X131380183Y-88963422D01*
X132172100Y-88795139D01*
X133011786Y-88676595D01*
X134102885Y-88627000D01*
X165996818Y-88627000D01*
X166989184Y-88676618D01*
M02*
