G04 #@! TF.GenerationSoftware,KiCad,Pcbnew,(5.1.0)-1*
G04 #@! TF.CreationDate,2019-08-13T16:47:38+01:00*
G04 #@! TF.ProjectId,fp_baseline,66705f62-6173-4656-9c69-6e652e6b6963,rev?*
G04 #@! TF.SameCoordinates,Original*
G04 #@! TF.FileFunction,Other,User*
%FSLAX46Y46*%
G04 Gerber Fmt 4.6, Leading zero omitted, Abs format (unit mm)*
G04 Created by KiCad (PCBNEW (5.1.0)-1) date 2019-08-13 16:47:38*
%MOMM*%
%LPD*%
G04 APERTURE LIST*
%ADD10C,0.120000*%
%ADD11C,0.100000*%
G04 APERTURE END LIST*
D10*
X112700000Y-94000000D02*
X136795000Y-94000000D01*
X112700000Y-96000000D02*
X136800000Y-95990000D01*
X136800000Y-96140000D02*
X136800000Y-95990000D01*
X150500000Y-95990000D02*
X150500000Y-96140000D01*
X114997994Y-111799986D02*
X185000000Y-111800000D01*
X112700000Y-90490000D02*
X112700000Y-94000000D01*
X185010000Y-88200000D02*
X114990000Y-88200000D01*
X187300000Y-94000000D02*
X187300000Y-90490000D01*
X187290000Y-109510000D02*
X187300000Y-96000000D01*
X112700000Y-96000000D02*
X112700000Y-109510000D01*
X150500000Y-94000000D02*
X187300000Y-94000000D01*
X150500000Y-95990000D02*
X187300000Y-96000000D01*
X114997994Y-111799986D02*
G75*
G02X112700000Y-109510000I-7994J2289986D01*
G01*
X187290000Y-109510000D02*
G75*
G02X185000000Y-111800000I-2290000J0D01*
G01*
X185010000Y-88200000D02*
G75*
G02X187300000Y-90490000I0J-2290000D01*
G01*
X112700000Y-90490000D02*
G75*
G02X114990000Y-88200000I2290000J0D01*
G01*
D11*
X188800000Y-109500000D02*
X188800000Y-90480000D01*
X114990000Y-113290000D02*
X185010000Y-113290000D01*
X114990000Y-86700000D02*
X185010000Y-86690000D01*
X188800000Y-109500000D02*
G75*
G02X185010000Y-113290000I-3790000J0D01*
G01*
X114990000Y-113290000D02*
G75*
G02X111200000Y-109500000I0J3790000D01*
G01*
X185010000Y-86690000D02*
G75*
G02X188800000Y-90480000I0J-3790000D01*
G01*
X111200000Y-90490000D02*
G75*
G02X114990000Y-86700000I3790000J0D01*
G01*
X111200000Y-90490000D02*
X111200000Y-109500000D01*
D10*
X136795000Y-94000000D02*
X136800000Y-89240000D01*
X150500000Y-96140000D02*
X136800000Y-96140000D01*
X150500000Y-89240000D02*
X150500000Y-94000000D01*
X136800000Y-89240000D02*
X150500000Y-89240000D01*
M02*
